<svg version="1.1" width="482" height="362" viewBox="-1 -1 482 362" xmlns="http://www.w3.org/2000/svg" xmlns:xlink="http://www.w3.org/1999/xlink">
  <!-- Exported by Scratch - http://scratch.mit.edu/ -->
  <g id="ID0.9915081118233502">
    <path id="ID0.7005038484930992" fill="#414042" d="M 0 0 L 480.241 0 L 480.241 360 L 0 360 L 0 0 Z "/>
    <path id="ID0.9765321067534387" d="M 480.240 235.412 L 480.240 230.532 C 471.031 231.623 469.422 226.579 469.422 226.579 C 469.422 226.579 469.203 224.180 469.203 222.544 C 469.203 220.908 469.529 219.600 469.529 219.055 C 469.529 218.510 469.638 218.183 468.004 218.183 C 466.367 218.183 465.496 217.856 464.733 218.291 C 463.970 218.726 464.405 219.818 464.405 219.818 L 464.733 224.071 C 464.733 224.071 464.733 225.052 462.770 227.124 C 460.807 229.196 454.155 229.633 448.592 227.343 C 443.031 225.053 444.231 218.510 444.231 218.073 C 444.231 217.636 443.903 217.419 442.813 215.892 C 441.723 214.365 441.833 209.785 441.833 209.130 C 441.833 208.475 441.833 207.931 440.960 207.713 C 440.087 207.495 436.271 206.949 434.743 207.059 C 433.218 207.168 433.653 208.585 433.653 208.585 C 433.653 208.585 433.981 210.657 434.089 213.602 C 434.198 216.546 433.327 218.182 429.946 220.690 C 426.565 223.198 424.712 223.525 421.657 224.071 C 418.604 224.617 418.169 225.270 411.516 225.488 C 404.863 225.706 398.795 225.509 398.795 225.509 L 398.541 225.509 C 392.871 225.727 393.853 216.676 391.018 217.003 C 388.184 217.330 389.055 219.620 388.620 221.256 C 388.182 222.892 387.311 224.310 384.585 223.983 C 381.859 223.656 382.841 221.365 382.841 221.365 C 382.841 221.365 383.167 216.894 383.386 214.822 C 383.603 212.750 381.968 206.970 377.933 207.080 C 373.898 207.190 374.880 210.461 375.642 216.350 C 376.406 222.239 378.915 229.217 378.915 229.217 C 378.915 229.217 377.278 230.308 369.972 230.090 C 362.666 229.872 361.685 228.453 361.685 228.453 L 361.904 226.927 C 361.904 226.927 362.449 225.836 362.449 224.310 C 362.449 222.784 358.959 220.494 357.215 221.802 C 355.469 223.111 358.524 226.273 358.742 226.927 C 358.959 227.581 358.633 228.345 354.707 228.453 C 350.779 228.561 347.945 225.945 347.510 222.456 C 347.072 218.967 348.164 211.660 348.164 211.660 C 348.164 211.660 348.164 211.660 348.383 210.569 C 348.600 209.478 348.383 207.842 342.166 207.407 C 335.951 206.971 334.314 208.824 334.314 209.261 C 334.314 209.698 334.859 210.787 334.859 210.787 C 334.859 210.787 334.968 215.259 334.859 217.112 C 334.752 218.966 333.879 221.365 333.879 222.456 C 333.879 223.547 333.660 224.528 333.660 225.727 C 333.660 226.926 332.789 228.998 327.336 229.108 C 321.883 229.218 320.793 224.419 320.793 224.419 L 320.574 220.711 C 320.574 220.711 321.119 220.493 321.228 219.730 C 321.337 218.967 320.464 218.204 318.830 218.204 C 317.193 218.204 315.994 217.440 315.559 218.312 C 315.124 219.184 316.104 219.839 316.104 219.839 C 316.104 219.839 317.413 223.001 317.413 224.092 C 317.413 225.183 315.341 225.728 315.341 225.728 C 315.341 225.728 303.019 225.401 297.130 225.836 C 291.241 226.271 290.806 221.910 290.151 218.639 C 289.496 215.368 289.606 205.772 289.932 204.681 C 290.260 203.590 289.278 202.609 289.278 202.609 C 289.278 202.609 284.479 202.501 283.934 203.046 C 283.389 203.591 284.479 205.009 284.479 205.009 C 284.479 205.009 287.969 216.459 288.405 218.967 C 288.843 221.475 289.387 225.729 280.227 226.928 C 271.067 228.127 269.430 223.002 269.430 223.002 C 269.430 223.002 269.213 220.603 269.213 218.967 C 269.213 217.331 269.539 216.023 269.539 215.478 C 269.539 214.933 269.648 214.606 268.012 214.606 C 266.377 214.606 265.504 214.279 264.741 214.714 C 263.978 215.149 264.415 216.241 264.415 216.241 L 264.741 220.494 C 264.741 220.494 264.741 221.475 262.778 223.547 C 260.815 225.619 254.165 226.056 248.602 223.766 C 243.041 221.476 244.241 214.933 244.241 214.496 C 244.241 214.059 243.913 213.842 242.823 212.315 C 241.733 210.788 241.841 206.208 241.841 205.553 C 241.841 204.898 241.841 204.354 240.970 204.136 C 240.097 203.918 236.281 203.372 234.753 203.482 C 233.226 203.591 233.663 205.008 233.663 205.008 C 233.663 205.008 233.990 207.080 234.099 210.025 C 234.208 212.970 235.411 214.808 232.655 219.483 C 230.517 223.109 226.176 226.668 223.123 227.213 C 220.070 227.758 219.633 228.412 212.981 228.630 C 206.329 228.848 197.296 228.112 197.296 228.112 L 196.671 228.121 C 191.001 228.339 191.982 219.288 189.147 219.615 C 186.312 219.942 187.184 222.232 186.748 223.868 C 186.312 225.504 185.439 226.922 182.713 226.595 C 179.987 226.268 180.968 223.977 180.968 223.977 C 180.968 223.977 181.295 219.506 181.513 217.434 C 181.731 215.362 180.096 209.582 176.060 209.692 C 172.024 209.802 173.007 213.073 173.770 218.962 C 174.533 224.851 177.042 231.829 177.042 231.829 C 177.042 231.829 175.406 232.920 168.100 232.702 C 160.794 232.484 159.812 231.065 159.812 231.065 L 160.030 229.539 C 160.030 229.539 160.575 228.448 160.575 226.922 C 160.575 225.396 157.086 223.106 155.341 224.414 C 153.596 225.722 156.650 228.885 156.868 229.539 C 157.086 230.193 156.759 230.957 152.833 231.065 C 148.907 231.173 146.072 228.557 145.636 225.068 C 145.200 221.579 146.291 214.272 146.291 214.272 C 146.291 214.272 146.291 214.272 146.509 213.181 C 146.727 212.090 146.509 210.454 140.293 210.019 C 134.077 209.584 132.441 211.436 132.441 211.873 C 132.441 212.310 132.986 213.399 132.986 213.399 C 132.986 213.399 133.095 217.871 132.986 219.724 C 132.877 221.577 132.005 223.977 132.005 225.068 C 132.005 226.159 131.787 227.140 131.787 228.339 C 131.787 229.538 130.915 231.610 125.462 231.720 C 120.009 231.830 118.919 227.031 118.919 227.031 L 118.701 223.323 C 118.701 223.323 119.246 223.105 119.355 222.342 C 119.464 221.579 118.592 220.816 116.956 220.816 C 115.320 220.816 114.121 220.052 113.685 220.924 C 113.249 221.796 114.230 222.451 114.230 222.451 C 114.230 222.451 115.539 225.613 115.539 226.704 C 115.539 227.795 113.467 228.340 113.467 228.340 C 113.467 228.340 101.145 228.013 95.256 228.448 C 89.367 228.883 88.931 224.522 88.277 221.251 C 87.623 217.980 87.732 208.384 88.059 207.293 C 88.386 206.202 87.405 205.221 87.405 205.221 C 87.405 205.221 82.607 205.113 82.061 205.658 C 81.515 206.203 82.606 207.621 82.606 207.621 C 82.606 207.621 86.096 219.071 86.532 221.579 C 86.968 224.087 87.513 228.341 78.353 229.540 C 69.193 230.739 67.557 225.614 67.557 225.614 C 67.557 225.614 67.339 223.215 67.339 221.579 C 67.339 219.943 67.666 218.635 67.666 218.090 C 67.666 217.545 67.775 217.218 66.139 217.218 C 64.503 217.218 63.631 216.891 62.868 217.326 C 62.105 217.761 62.541 218.853 62.541 218.853 L 62.868 223.106 C 62.868 223.106 62.868 224.087 60.905 226.159 C 58.942 228.231 52.290 228.668 46.729 226.378 C 41.168 224.088 42.367 217.545 42.367 217.108 C 42.367 216.671 42.040 216.454 40.950 214.927 C 39.860 213.400 39.969 208.820 39.969 208.165 C 39.969 207.510 39.969 206.966 39.096 206.748 C 38.223 206.530 34.407 205.984 32.880 206.094 C 31.353 206.204 31.790 207.620 31.790 207.620 C 31.790 207.620 32.117 209.692 32.226 212.637 C 32.335 215.582 31.463 217.217 28.082 219.725 C 24.701 222.233 22.848 222.560 19.794 223.106 C 16.740 223.652 16.304 224.305 9.652 224.523 C 5.944 224.644 2.407 224.097 0.002 223.588 L 0.002 269.868 L 0 269.868 L 0 253.662 L 0 253.662 L 0 256.410 L 480.240 256.410 L 480.240 235.412 L 480.240 235.412 Z M 24.752 235.412 L 24.713 235.412 C 24.733 235.350 24.745 235.310 24.745 235.310 C 24.745 235.310 24.748 235.349 24.752 235.412 Z "/>
    <path id="ID0.034356466960161924" fill="none" stroke="#58595B" stroke-width="0.5" d="M -0.001 223.587 C 2.404 224.096 5.941 224.643 9.649 224.522 C 16.301 224.303 16.737 223.651 19.791 223.104 C 22.845 222.559 24.699 222.231 28.079 219.723 C 31.459 217.215 32.331 215.580 32.223 212.635 C 32.114 209.692 31.787 207.619 31.787 207.619 C 31.787 207.619 31.350 206.201 32.877 206.092 C 34.404 205.983 38.220 206.530 39.093 206.746 C 39.966 206.965 39.966 207.510 39.966 208.164 C 39.966 208.818 39.857 213.398 40.947 214.926 C 42.037 216.451 42.364 216.670 42.364 217.106 C 42.364 217.544 41.165 224.086 46.726 226.376 C 52.288 228.667 58.939 228.230 60.902 226.157 C 62.865 224.087 62.865 223.104 62.865 223.104 L 62.538 218.852 C 62.538 218.852 62.101 217.760 62.865 217.325 C 63.629 216.890 64.501 217.216 66.136 217.216 C 67.771 217.216 67.663 217.544 67.663 218.089 C 67.663 218.634 67.336 219.943 67.336 221.577 C 67.336 223.214 67.554 225.612 67.554 225.612 C 67.554 225.612 69.190 230.737 78.350 229.538 C 87.510 228.339 86.965 224.085 86.529 221.577 C 86.093 219.069 82.603 207.620 82.603 207.620 C 82.603 207.620 81.512 206.202 82.058 205.657 C 82.604 205.112 87.402 205.219 87.402 205.219 C 87.402 205.219 88.383 206.201 88.056 207.291 C 87.729 208.383 87.619 217.979 88.274 221.250 C 88.929 224.521 89.365 228.883 95.253 228.447 C 101.141 228.011 113.464 228.338 113.464 228.338 C 113.464 228.338 115.536 227.793 115.536 226.703 C 115.536 225.611 114.227 222.449 114.227 222.449 C 114.227 222.449 113.246 221.795 113.682 220.922 C 114.118 220.051 115.318 220.815 116.953 220.815 C 118.588 220.815 119.461 221.577 119.352 222.340 C 119.243 223.103 118.698 223.322 118.698 223.322 L 118.916 227.029 C 118.916 227.029 120.006 231.828 125.459 231.718 C 130.912 231.608 131.784 229.536 131.784 228.337 C 131.784 227.138 132.002 226.157 132.002 225.066 C 132.002 223.976 132.875 221.576 132.983 219.722 C 133.091 217.868 132.983 213.398 132.983 213.398 C 132.983 213.398 132.438 212.308 132.438 211.871 C 132.438 211.435 134.074 209.582 140.290 210.017 C 146.506 210.452 146.724 212.089 146.506 213.179 C 146.288 214.271 146.288 214.271 146.288 214.271 C 146.288 214.271 145.197 221.578 145.633 225.066 C 146.070 228.556 148.904 231.171 152.830 231.064 C 156.756 230.955 157.084 230.191 156.865 229.537 C 156.646 228.883 153.593 225.721 155.338 224.412 C 157.084 223.103 160.572 225.394 160.572 226.920 C 160.572 228.447 160.027 229.537 160.027 229.537 L 159.809 231.064 C 159.809 231.064 160.790 232.482 168.097 232.701 C 175.404 232.918 177.038 231.828 177.038 231.828 C 177.038 231.828 174.529 224.849 173.767 218.961 C 173.003 213.072 172.021 209.801 176.056 209.691 C 180.091 209.581 181.727 215.361 181.509 217.433 C 181.291 219.505 180.964 223.976 180.964 223.976 C 180.964 223.976 179.983 226.267 182.708 226.593 C 185.435 226.921 186.307 225.503 186.743 223.866 C 187.180 222.231 186.307 219.940 189.142 219.614 C 191.977 219.286 190.996 228.337 196.666 228.120 L 197.290 228.110 C 197.290 228.110 206.322 228.846 212.975 228.628 C 219.627 228.411 220.063 227.757 223.117 227.212 C 226.171 226.665 230.512 223.107 232.649 219.482 C 235.406 214.806 234.203 212.968 234.093 210.023 C 233.984 207.080 233.657 205.007 233.657 205.007 C 233.657 205.007 233.219 203.589 234.747 203.480 C 236.275 203.371 240.091 203.918 240.964 204.134 C 241.835 204.353 241.835 204.898 241.835 205.552 C 241.835 206.206 241.728 210.786 242.817 212.314 C 243.907 213.839 244.235 214.058 244.235 214.494 C 244.235 214.932 243.036 221.474 248.596 223.764 C 254.158 226.055 260.809 225.618 262.772 223.545 C 264.735 221.475 264.735 220.492 264.735 220.492 L 264.409 216.240 C 264.409 216.240 263.971 215.148 264.735 214.713 C 265.499 214.278 266.372 214.604 268.006 214.604 C 269.643 214.604 269.533 214.932 269.533 215.477 C 269.533 216.022 269.207 217.331 269.207 218.965 C 269.207 220.602 269.424 223 269.424 223 C 269.424 223 271.061 228.125 280.221 226.926 C 289.381 225.727 288.836 221.473 288.399 218.965 C 287.963 216.457 284.473 205.008 284.473 205.008 C 284.473 205.008 283.383 203.590 283.928 203.045 C 284.473 202.500 289.272 202.607 289.272 202.607 C 289.272 202.607 290.254 203.589 289.926 204.679 C 289.600 205.771 289.490 215.367 290.145 218.638 C 290.800 221.909 291.235 226.271 297.124 225.835 C 303.013 225.399 315.335 225.726 315.335 225.726 C 315.335 225.726 317.407 225.181 317.407 224.091 C 317.407 222.999 316.098 219.837 316.098 219.837 C 316.098 219.837 315.118 219.183 315.553 218.310 C 315.989 217.439 317.188 218.203 318.824 218.203 C 320.459 218.203 321.332 218.965 321.222 219.728 C 321.112 220.491 320.568 220.710 320.568 220.710 L 320.787 224.417 C 320.787 224.417 321.877 229.216 327.330 229.106 C 332.783 228.996 333.654 226.924 333.654 225.725 C 333.654 224.526 333.873 223.545 333.873 222.454 C 333.873 221.364 334.746 218.964 334.853 217.110 C 334.962 215.256 334.853 210.786 334.853 210.786 C 334.853 210.786 334.308 209.696 334.308 209.259 C 334.308 208.823 335.945 206.970 342.160 207.405 C 348.377 207.841 348.594 209.477 348.377 210.567 C 348.158 211.659 348.158 211.659 348.158 211.659 C 348.158 211.659 347.066 218.966 347.504 222.454 C 347.940 225.944 350.774 228.559 354.701 228.452 C 358.627 228.343 358.953 227.579 358.736 226.925 C 358.517 226.271 355.463 223.109 357.209 221.800 C 358.953 220.491 362.443 222.782 362.443 224.308 C 362.443 225.835 361.898 226.925 361.898 226.925 L 361.679 228.452 C 361.679 228.452 362.659 229.870 369.966 230.089 C 377.273 230.306 378.909 229.216 378.909 229.216 C 378.909 229.216 376.399 222.237 375.636 216.349 C 374.874 210.460 373.892 207.189 377.927 207.079 C 381.962 206.969 383.597 212.749 383.380 214.821 C 383.161 216.893 382.835 221.364 382.835 221.364 C 382.835 221.364 381.853 223.655 384.579 223.981 C 387.306 224.309 388.177 222.891 388.614 221.254 C 389.050 219.619 388.178 217.328 391.012 217.002 C 393.848 216.674 392.866 225.725 398.535 225.508 L 398.789 225.508 C 398.789 225.508 404.857 225.703 411.510 225.487 C 418.162 225.268 418.598 224.616 421.651 224.069 C 424.706 223.524 426.559 223.196 429.940 220.688 C 433.321 218.180 434.192 216.545 434.083 213.600 C 433.976 210.657 433.647 208.584 433.647 208.584 C 433.647 208.584 433.211 207.166 434.737 207.057 C 436.264 206.948 440.081 207.495 440.954 207.711 C 441.827 207.930 441.827 208.475 441.827 209.129 C 441.827 209.783 441.718 214.363 442.807 215.891 C 443.897 217.416 444.225 217.635 444.225 218.071 C 444.225 218.509 443.026 225.051 448.586 227.341 C 454.148 229.632 460.801 229.195 462.764 227.122 C 464.727 225.052 464.727 224.069 464.727 224.069 L 464.399 219.817 C 464.399 219.817 463.963 218.725 464.727 218.290 C 465.491 217.855 466.362 218.181 467.998 218.181 C 469.633 218.181 469.523 218.509 469.523 219.054 C 469.523 219.599 469.197 220.908 469.197 222.542 C 469.197 224.179 469.416 226.577 469.416 226.577 C 469.416 226.577 471.051 231.702 480.211 230.503 "/>
    <path id="ID0.9088432076387107" fill="#726658" d="M 0 247.199 C 2.640 247.193 10.039 247.114 16.983 246.462 C 21.912 245.999 25.431 248.663 33.250 246.464 C 41.250 244.214 38.104 248.492 61.095 247.299 C 84.086 246.104 83.985 244.401 90.482 243.700 C 94.267 243.292 97.647 244.824 99.578 245.099 C 101.509 245.374 115.763 243.745 118.937 243.467 C 122.111 243.192 123.491 244.707 126.665 245.399 C 129.839 246.088 147.806 246.745 159.950 244.500 C 171.845 242.301 174.997 247.647 177.343 248.198 C 179.689 248.751 190.104 248.694 194.244 248.555 C 198.384 248.418 198.660 247.176 198.660 247.176 C 198.660 247.176 203.735 247.549 205.668 247.963 C 207.601 248.377 213.036 245.734 235.668 244.630 C 258.301 243.525 272.439 245.555 272.439 245.555 C 272.439 245.555 273.461 244.415 274.565 244.554 C 275.669 244.691 286.175 246.110 305.632 245.696 C 305.632 245.696 317.890 243.254 320.175 243.172 C 343.183 242.354 343.831 245.129 345.177 244.939 C 346.194 244.795 347.848 243.897 349.799 243.834 C 355.327 243.654 365.861 246.105 369.038 245.881 C 372.215 245.657 375.339 245.394 378.584 245.548 C 383.834 245.798 397.377 246.887 409.168 243.215 C 420.961 239.545 424.665 244.458 427.001 245.048 C 429.339 245.638 437.943 246.285 442.084 246.215 C 446.225 246.145 449.908 245.103 451.834 245.548 C 453.557 245.948 462.250 245.986 480.241 245.447 L 480.241 360 L 0 360 L 0 248.929 L 0 247.199 Z "/>
    <g id="ID0.4489253512583673">
      <path id="ID0.9892400735989213" fill="#F9ED32" opacity="0.9" d="M 75.135 23.100 C 75.252 22.696 75.790 22.746 75.790 22.746 L 77.369 22.748 C 78.085 22.752 78.753 22.299 78.986 21.582 L 79.477 20.064 C 79.477 20.064 79.586 19.554 80.019 19.554 C 80.452 19.554 80.559 20.066 80.559 20.066 L 81.044 21.568 C 81.261 22.250 81.898 22.746 82.652 22.746 L 84.247 22.744 C 84.247 22.744 84.769 22.695 84.901 23.101 C 85.035 23.513 84.580 23.773 84.580 23.773 L 83.300 24.699 C 82.719 25.117 82.445 25.877 82.677 26.594 L 83.172 28.110 C 83.172 28.110 83.384 28.587 83.034 28.842 C 82.683 29.096 82.296 28.744 82.296 28.744 L 81.021 27.814 C 80.444 27.390 79.638 27.363 79.028 27.806 L 77.739 28.745 C 77.739 28.745 77.350 29.093 77 28.839 C 76.650 28.585 76.865 28.107 76.865 28.107 L 77.355 26.607 C 77.580 25.927 77.355 25.152 76.746 24.709 L 75.454 23.773 C 75.453 23.773 75.001 23.512 75.135 23.100 Z "/>
    </g>
    <g id="ID0.5486277211457491">
      <path id="ID0.38239979464560747" fill="#F9ED32" opacity="0.9" d="M 19.375 95.979 C 19.492 95.575 20.030 95.625 20.030 95.625 L 21.609 95.627 C 22.325 95.631 22.993 95.178 23.226 94.461 L 23.717 92.943 C 23.717 92.943 23.826 92.433 24.259 92.433 C 24.692 92.433 24.799 92.945 24.799 92.945 L 25.284 94.447 C 25.501 95.129 26.138 95.625 26.892 95.625 L 28.487 95.623 C 28.487 95.623 29.009 95.574 29.141 95.980 C 29.275 96.392 28.820 96.652 28.820 96.652 L 27.541 97.578 C 26.960 97.996 26.686 98.756 26.918 99.473 L 27.413 100.989 C 27.413 100.989 27.625 101.466 27.275 101.721 C 26.924 101.975 26.537 101.623 26.537 101.623 L 25.262 100.693 C 24.685 100.269 23.879 100.242 23.269 100.685 L 21.980 101.624 C 21.980 101.624 21.591 101.972 21.241 101.718 C 20.891 101.464 21.106 100.986 21.106 100.986 L 21.596 99.486 C 21.821 98.806 21.596 98.031 20.987 97.588 L 19.695 96.652 C 19.694 96.652 19.242 96.391 19.375 95.979 Z "/>
    </g>
    <g id="ID0.9291985579766333">
      <path id="ID0.7948003229685128" fill="#F9ED32" opacity="0.9" d="M 157.866 49.580 C 157.983 49.176 158.521 49.226 158.521 49.226 L 160.100 49.228 C 160.815 49.232 161.483 48.779 161.716 48.062 L 162.207 46.544 C 162.207 46.544 162.316 46.034 162.749 46.034 C 163.182 46.034 163.289 46.546 163.289 46.546 L 163.773 48.048 C 163.991 48.730 164.628 49.226 165.382 49.226 L 166.976 49.224 C 166.976 49.224 167.498 49.175 167.630 49.581 C 167.764 49.993 167.309 50.253 167.309 50.253 L 166.031 51.179 C 165.449 51.597 165.176 52.357 165.408 53.074 L 165.902 54.590 C 165.902 54.590 166.115 55.069 165.764 55.322 C 165.413 55.575 165.026 55.224 165.026 55.224 L 163.751 54.294 C 163.174 53.870 162.367 53.843 161.758 54.286 L 160.469 55.225 C 160.469 55.225 160.080 55.575 159.730 55.319 C 159.379 55.065 159.595 54.587 159.595 54.587 L 160.085 53.087 C 160.310 52.407 160.086 51.632 159.476 51.189 L 158.184 50.253 C 158.185 50.254 157.733 49.992 157.866 49.580 Z "/>
    </g>
    <g id="ID0.12746594520285726">
      <path id="ID0.6607887740246952" fill="#F9ED32" opacity="0.9" d="M 293.842 50.070 C 293.959 49.666 294.496 49.715 294.496 49.715 L 296.074 49.719 C 296.791 49.723 297.459 49.270 297.691 48.553 L 298.181 47.035 C 298.181 47.035 298.290 46.523 298.724 46.523 C 299.158 46.523 299.263 47.037 299.263 47.037 L 299.749 48.539 C 299.966 49.221 300.603 49.717 301.356 49.717 L 302.952 49.715 C 302.952 49.715 303.473 49.664 303.605 50.072 C 303.739 50.484 303.284 50.744 303.284 50.744 L 302.005 51.670 C 301.425 52.088 301.150 52.846 301.383 53.563 L 301.878 55.081 C 301.878 55.081 302.090 55.558 301.739 55.813 C 301.388 56.067 301.001 55.713 301.001 55.713 L 299.726 54.783 C 299.150 54.359 298.343 54.334 297.733 54.775 L 296.444 55.714 C 296.444 55.714 296.055 56.064 295.705 55.810 C 295.355 55.556 295.570 55.078 295.570 55.078 L 296.060 53.576 C 296.285 52.898 296.060 52.123 295.451 51.680 L 294.160 50.744 C 294.160 50.744 293.707 50.482 293.842 50.070 Z "/>
    </g>
    <g id="ID0.11767051229253411">
      <path id="ID0.5299475803039968" fill="#F9ED32" opacity="0.9" d="M 316.341 62.787 C 316.458 62.383 316.995 62.433 316.995 62.433 L 318.573 62.435 C 319.290 62.439 319.958 61.986 320.190 61.269 L 320.680 59.751 C 320.680 59.751 320.789 59.241 321.223 59.241 C 321.657 59.241 321.762 59.753 321.762 59.753 L 322.248 61.255 C 322.465 61.937 323.102 62.433 323.855 62.433 L 325.451 62.431 C 325.451 62.431 325.972 62.382 326.104 62.788 C 326.238 63.200 325.783 63.460 325.783 63.460 L 324.504 64.386 C 323.924 64.804 323.649 65.564 323.882 66.281 L 324.377 67.797 C 324.377 67.797 324.589 68.274 324.238 68.529 C 323.887 68.783 323.500 68.431 323.500 68.431 L 322.225 67.501 C 321.649 67.077 320.842 67.050 320.232 67.493 L 318.943 68.432 C 318.943 68.432 318.554 68.780 318.204 68.526 C 317.854 68.272 318.069 67.794 318.069 67.794 L 318.559 66.294 C 318.784 65.614 318.559 64.839 317.950 64.396 L 316.659 63.460 C 316.659 63.461 316.206 63.199 316.341 62.787 Z "/>
    </g>
    <g id="ID0.6699654734693468">
      <path id="ID0.44184078089892864" fill="#F9ED32" opacity="0.9" d="M 445.468 29.039 C 445.585 28.635 446.122 28.684 446.122 28.684 L 447.700 28.686 C 448.417 28.690 449.085 28.239 449.317 27.520 L 449.807 26.004 C 449.807 26.004 449.916 25.492 450.350 25.492 C 450.784 25.492 450.889 26.004 450.889 26.004 L 451.375 27.508 C 451.592 28.190 452.229 28.684 452.982 28.684 L 454.578 28.682 C 454.578 28.682 455.099 28.633 455.231 29.041 C 455.365 29.453 454.910 29.713 454.910 29.713 L 453.631 30.639 C 453.051 31.055 452.776 31.815 453.009 32.532 L 453.504 34.048 C 453.504 34.048 453.716 34.527 453.365 34.780 C 453.014 35.033 452.627 34.682 452.627 34.682 L 451.352 33.752 C 450.776 33.328 449.969 33.301 449.359 33.744 L 448.070 34.683 C 448.070 34.683 447.681 35.033 447.331 34.777 C 446.981 34.523 447.196 34.047 447.196 34.047 L 447.686 32.545 C 447.911 31.865 447.686 31.090 447.077 30.649 L 445.786 29.713 C 445.786 29.713 445.333 29.451 445.468 29.039 Z "/>
    </g>
    <g id="ID0.26877659372985363">
      <path id="ID0.5586657687090337" fill="#F9ED32" opacity="0.9" d="M 466.011 69.146 C 466.128 68.742 466.665 68.791 466.665 68.791 L 468.243 68.795 C 468.960 68.799 469.628 68.346 469.860 67.629 L 470.350 66.111 C 470.350 66.111 470.459 65.599 470.893 65.599 C 471.327 65.599 471.432 66.113 471.432 66.113 L 471.918 67.615 C 472.135 68.297 472.772 68.793 473.525 68.793 L 475.121 68.791 C 475.121 68.791 475.642 68.740 475.774 69.148 C 475.908 69.560 475.453 69.820 475.453 69.820 L 474.174 70.746 C 473.594 71.164 473.319 71.922 473.552 72.639 L 474.047 74.155 C 474.047 74.155 474.259 74.634 473.908 74.887 C 473.557 75.143 473.170 74.789 473.170 74.789 L 471.895 73.859 C 471.319 73.435 470.512 73.410 469.902 73.851 L 468.613 74.790 C 468.613 74.790 468.224 75.140 467.874 74.886 C 467.524 74.630 467.739 74.154 467.739 74.154 L 468.229 72.652 C 468.454 71.974 468.229 71.199 467.620 70.756 L 466.329 69.820 C 466.329 69.820 465.876 69.559 466.011 69.146 Z "/>
    </g>
    <g id="ID0.22277360083535314">
      <path id="ID0.4208335056900978" fill="#F9ED32" opacity="0.9" d="M 437.153 77.951 C 437.270 77.547 437.807 77.596 437.807 77.596 L 439.385 77.598 C 440.102 77.602 440.770 77.151 441.002 76.432 L 441.492 74.916 C 441.492 74.916 441.601 74.404 442.035 74.404 C 442.469 74.404 442.574 74.916 442.574 74.916 L 443.060 76.420 C 443.277 77.102 443.914 77.596 444.667 77.596 L 446.263 77.594 C 446.263 77.594 446.784 77.545 446.916 77.953 C 447.050 78.365 446.595 78.625 446.595 78.625 L 445.316 79.551 C 444.736 79.967 444.461 80.727 444.694 81.444 L 445.189 82.960 C 445.189 82.960 445.401 83.439 445.050 83.692 C 444.699 83.945 444.312 83.594 444.312 83.594 L 443.037 82.664 C 442.461 82.240 441.654 82.213 441.044 82.656 L 439.755 83.595 C 439.755 83.595 439.366 83.945 439.016 83.689 C 438.666 83.435 438.881 82.959 438.881 82.959 L 439.371 81.457 C 439.596 80.777 439.371 80.002 438.762 79.561 L 437.471 78.625 C 437.472 78.625 437.019 78.363 437.153 77.951 Z "/>
    </g>
    <g id="ID0.0032172310166060925">
      <path id="ID0.3218758013099432" fill="#F9ED32" opacity="0.9" d="M 240.528 101.428 C 240.645 101.024 241.182 101.073 241.182 101.073 L 242.760 101.077 C 243.477 101.081 244.145 100.628 244.377 99.911 L 244.867 98.393 C 244.867 98.393 244.976 97.881 245.410 97.881 C 245.844 97.881 245.949 98.395 245.949 98.395 L 246.435 99.897 C 246.652 100.579 247.289 101.075 248.042 101.075 L 249.638 101.073 C 249.638 101.073 250.159 101.022 250.291 101.430 C 250.425 101.842 249.970 102.102 249.970 102.102 L 248.691 103.028 C 248.111 103.446 247.836 104.204 248.069 104.921 L 248.564 106.439 C 248.564 106.439 248.776 106.916 248.425 107.171 C 248.074 107.425 247.687 107.071 247.687 107.071 L 246.412 106.141 C 245.836 105.717 245.029 105.692 244.419 106.135 L 243.130 107.073 C 243.130 107.073 242.741 107.423 242.391 107.169 C 242.041 106.915 242.256 106.437 242.256 106.437 L 242.746 104.937 C 242.971 104.257 242.746 103.482 242.137 103.039 L 240.846 102.103 C 240.847 102.102 240.394 101.840 240.528 101.428 Z "/>
    </g>
    <g id="ID0.5144224870018661">
      <path id="ID0.24994494346901774" fill="#F9ED32" opacity="0.9" d="M 210.569 68.426 C 210.631 68.211 210.917 68.237 210.917 68.237 L 211.755 68.239 C 212.135 68.241 212.489 68.001 212.612 67.620 L 212.872 66.815 C 212.872 66.815 212.931 66.544 213.161 66.544 C 213.391 66.544 213.446 66.815 213.446 66.815 L 213.705 67.614 C 213.819 67.975 214.157 68.237 214.558 68.237 L 215.406 68.237 C 215.406 68.237 215.681 68.210 215.752 68.426 C 215.824 68.645 215.582 68.783 215.582 68.783 L 214.902 69.273 C 214.595 69.496 214.449 69.898 214.572 70.279 L 214.836 71.084 C 214.836 71.084 214.947 71.336 214.762 71.473 C 214.576 71.608 214.371 71.420 214.371 71.420 L 213.693 70.926 C 213.387 70.701 212.959 70.688 212.635 70.922 L 211.950 71.420 C 211.950 71.420 211.745 71.606 211.558 71.471 C 211.372 71.336 211.487 71.082 211.487 71.082 L 211.747 70.285 C 211.866 69.926 211.747 69.514 211.424 69.279 L 210.739 68.783 C 210.739 68.783 210.498 68.645 210.569 68.426 Z "/>
    </g>
    <g id="ID0.46320007275789976">
      <path id="ID0.7717742118984461" fill="#F9ED32" opacity="0.9" d="M 114.612 26.971 C 114.652 26.834 114.834 26.850 114.834 26.850 L 115.368 26.852 C 115.611 26.852 115.837 26.700 115.916 26.456 L 116.082 25.942 C 116.082 25.942 116.119 25.770 116.266 25.770 C 116.413 25.770 116.449 25.944 116.449 25.944 L 116.614 26.452 C 116.687 26.682 116.903 26.850 117.158 26.850 L 117.699 26.850 C 117.699 26.850 117.875 26.832 117.920 26.971 C 117.965 27.110 117.811 27.200 117.811 27.200 L 117.377 27.512 C 117.181 27.653 117.087 27.910 117.167 28.153 L 117.334 28.667 C 117.334 28.667 117.406 28.829 117.288 28.915 C 117.169 29.001 117.038 28.882 117.038 28.882 L 116.605 28.568 C 116.410 28.425 116.137 28.416 115.930 28.566 L 115.493 28.884 C 115.493 28.884 115.361 29.001 115.243 28.915 C 115.125 28.829 115.197 28.667 115.197 28.667 L 115.364 28.159 C 115.440 27.929 115.364 27.667 115.157 27.516 L 114.720 27.200 C 114.720 27.199 114.566 27.109 114.612 26.971 Z "/>
    </g>
    <g id="ID0.3037427728995681">
      <path id="ID0.28308042604476213" fill="#F9ED32" opacity="0.9" d="M 12.341 81.404 C 12.381 81.267 12.563 81.283 12.563 81.283 L 13.097 81.285 C 13.340 81.285 13.566 81.133 13.645 80.889 L 13.811 80.375 C 13.811 80.375 13.848 80.203 13.995 80.203 C 14.142 80.203 14.178 80.377 14.178 80.377 L 14.343 80.885 C 14.416 81.115 14.632 81.283 14.887 81.283 L 15.428 81.283 C 15.428 81.283 15.604 81.265 15.649 81.404 C 15.694 81.543 15.540 81.633 15.540 81.633 L 15.106 81.945 C 14.910 82.086 14.816 82.343 14.896 82.586 L 15.063 83.100 C 15.063 83.100 15.135 83.262 15.017 83.348 C 14.898 83.434 14.767 83.315 14.767 83.315 L 14.333 83 C 14.138 82.857 13.865 82.848 13.658 82.998 L 13.221 83.316 C 13.221 83.316 13.089 83.433 12.971 83.347 C 12.853 83.261 12.925 83.099 12.925 83.099 L 13.092 82.591 C 13.168 82.361 13.092 82.099 12.885 81.948 L 12.448 81.632 C 12.449 81.633 12.295 81.543 12.341 81.404 Z "/>
    </g>
    <g id="ID0.2296402887441218">
      <path id="ID0.7409653482027352" fill="#F9ED32" opacity="0.9" d="M 161.007 80.404 C 161.047 80.267 161.230 80.283 161.230 80.283 L 161.763 80.285 C 162.006 80.285 162.233 80.133 162.312 79.889 L 162.478 79.375 C 162.478 79.375 162.515 79.203 162.662 79.203 C 162.809 79.203 162.844 79.377 162.844 79.377 L 163.010 79.885 C 163.082 80.115 163.299 80.283 163.554 80.283 L 164.094 80.283 C 164.094 80.283 164.271 80.265 164.316 80.404 C 164.362 80.543 164.208 80.633 164.208 80.633 L 163.774 80.945 C 163.577 81.086 163.484 81.343 163.563 81.586 L 163.731 82.100 C 163.731 82.100 163.802 82.262 163.684 82.348 C 163.565 82.434 163.434 82.315 163.434 82.315 L 163 82 C 162.806 81.857 162.532 81.848 162.325 81.998 L 161.888 82.316 C 161.888 82.316 161.756 82.433 161.637 82.347 C 161.520 82.261 161.592 82.099 161.592 82.099 L 161.758 81.591 C 161.834 81.361 161.758 81.099 161.551 80.948 L 161.114 80.632 C 161.115 80.633 160.962 80.543 161.007 80.404 Z "/>
    </g>
    <g id="ID0.8294735956005752">
      <path id="ID0.38184726843610406" fill="#F9ED32" opacity="0.9" d="M 281.008 58.404 C 281.047 58.267 281.229 58.283 281.229 58.283 L 281.764 58.285 C 282.006 58.285 282.233 58.133 282.311 57.889 L 282.477 57.375 C 282.477 57.375 282.514 57.203 282.661 57.203 C 282.809 57.203 282.845 57.377 282.845 57.377 L 283.009 57.885 C 283.083 58.115 283.298 58.283 283.554 58.283 L 284.095 58.283 C 284.095 58.283 284.271 58.265 284.316 58.404 C 284.361 58.543 284.207 58.633 284.207 58.633 L 283.773 58.945 C 283.578 59.086 283.484 59.343 283.563 59.586 L 283.730 60.100 C 283.730 60.100 283.802 60.262 283.684 60.348 C 283.565 60.434 283.434 60.315 283.434 60.315 L 283 60 C 282.805 59.857 282.531 59.848 282.325 59.998 L 281.888 60.316 C 281.888 60.316 281.756 60.433 281.638 60.347 C 281.519 60.261 281.591 60.099 281.591 60.099 L 281.758 59.591 C 281.833 59.361 281.758 59.099 281.552 58.948 L 281.114 58.632 C 281.115 58.633 280.961 58.543 281.008 58.404 Z "/>
    </g>
    <g id="ID0.004569098819047213">
      <path id="ID0.08240565424785018" fill="#F9ED32" opacity="0.9" d="M 423.236 55.125 C 423.275 54.988 423.457 55.006 423.457 55.006 L 423.992 55.006 C 424.234 55.008 424.461 54.854 424.539 54.611 L 424.705 54.097 C 424.705 54.097 424.742 53.923 424.889 53.923 C 425.037 53.923 425.073 54.097 425.073 54.097 L 425.237 54.605 C 425.311 54.837 425.526 55.005 425.782 55.005 L 426.323 55.003 C 426.323 55.003 426.499 54.987 426.544 55.124 C 426.589 55.265 426.435 55.353 426.435 55.353 L 426 55.668 C 425.805 55.809 425.711 56.066 425.790 56.309 L 425.957 56.823 C 425.957 56.823 426.029 56.985 425.911 57.071 C 425.792 57.157 425.661 57.038 425.661 57.038 L 425.228 56.724 C 425.033 56.579 424.759 56.570 424.553 56.720 L 424.116 57.038 C 424.116 57.038 423.984 57.157 423.866 57.071 C 423.747 56.983 423.819 56.823 423.819 56.823 L 423.986 56.313 C 424.061 56.084 423.986 55.821 423.780 55.670 L 423.342 55.354 C 423.344 55.354 423.189 55.266 423.236 55.125 Z "/>
    </g>
    <g id="ID0.2736015124246478">
      <path id="ID0.7153428057208657" fill="#F9ED32" opacity="0.9" d="M 473.903 20.457 C 473.942 20.320 474.124 20.338 474.124 20.338 L 474.659 20.338 C 474.901 20.340 475.128 20.188 475.206 19.943 L 475.372 19.429 C 475.372 19.429 475.409 19.255 475.556 19.255 C 475.704 19.255 475.740 19.429 475.740 19.429 L 475.904 19.939 C 475.978 20.169 476.193 20.337 476.449 20.337 L 476.990 20.337 C 476.990 20.337 477.166 20.319 477.211 20.458 C 477.256 20.597 477.102 20.685 477.102 20.685 L 476.667 21 C 476.472 21.141 476.378 21.398 476.457 21.641 L 476.624 22.155 C 476.624 22.155 476.696 22.317 476.578 22.403 C 476.459 22.489 476.328 22.370 476.328 22.370 L 475.895 22.056 C 475.700 21.911 475.426 21.904 475.220 22.054 L 474.783 22.370 C 474.783 22.370 474.651 22.489 474.533 22.403 C 474.414 22.317 474.486 22.155 474.486 22.155 L 474.653 21.647 C 474.728 21.417 474.653 21.153 474.447 21.002 L 474.009 20.686 C 474.011 20.686 473.856 20.598 473.903 20.457 Z "/>
    </g>
    <g id="ID0.9160842774435878">
      <path id="ID0.5581059213727713" fill="#F9ED32" opacity="0.9" d="M 353.236 62.125 C 353.275 61.988 353.457 62.006 353.457 62.006 L 353.992 62.006 C 354.234 62.008 354.461 61.854 354.539 61.611 L 354.705 61.097 C 354.705 61.097 354.742 60.923 354.889 60.923 C 355.037 60.923 355.073 61.097 355.073 61.097 L 355.237 61.607 C 355.311 61.837 355.526 62.005 355.782 62.005 L 356.323 62.003 C 356.323 62.003 356.499 61.987 356.544 62.124 C 356.589 62.265 356.435 62.353 356.435 62.353 L 356 62.668 C 355.805 62.809 355.711 63.066 355.790 63.309 L 355.957 63.823 C 355.957 63.823 356.029 63.985 355.911 64.071 C 355.792 64.157 355.661 64.038 355.661 64.038 L 355.228 63.724 C 355.033 63.579 354.759 63.570 354.553 63.720 L 354.116 64.038 C 354.116 64.038 353.984 64.157 353.866 64.071 C 353.747 63.983 353.819 63.823 353.819 63.823 L 353.986 63.313 C 354.061 63.084 353.986 62.821 353.780 62.670 L 353.342 62.354 C 353.344 62.354 353.189 62.266 353.236 62.125 Z "/>
    </g>
    <g id="ID0.13140227319672704">
      <path id="ID0.00236863037571311" fill="#F9ED32" opacity="0.9" d="M 255.903 56.791 C 255.942 56.654 256.124 56.672 256.124 56.672 L 256.659 56.672 C 256.901 56.674 257.128 56.522 257.206 56.277 L 257.372 55.763 C 257.372 55.763 257.409 55.589 257.556 55.589 C 257.704 55.589 257.740 55.763 257.740 55.763 L 257.904 56.273 C 257.978 56.503 258.193 56.671 258.449 56.671 L 258.990 56.671 C 258.990 56.671 259.166 56.653 259.211 56.792 C 259.256 56.931 259.102 57.019 259.102 57.019 L 258.668 57.333 C 258.473 57.474 258.379 57.731 258.458 57.974 L 258.625 58.488 C 258.625 58.488 258.697 58.650 258.579 58.736 C 258.460 58.822 258.329 58.703 258.329 58.703 L 257.896 58.389 C 257.701 58.244 257.427 58.237 257.221 58.387 L 256.784 58.703 C 256.784 58.703 256.652 58.822 256.534 58.736 C 256.415 58.650 256.487 58.488 256.487 58.488 L 256.654 57.980 C 256.729 57.750 256.654 57.486 256.448 57.335 L 256.010 57.019 C 256.011 57.020 255.856 56.932 255.903 56.791 Z "/>
    </g>
    <g id="ID0.14814753737300634">
      <path id="ID0.0074528297409415245" fill="#F9ED32" opacity="0.9" d="M 429.545 81.832 C 429.607 81.617 429.892 81.644 429.892 81.644 L 430.729 81.644 C 431.110 81.648 431.464 81.408 431.587 81.027 L 431.848 80.222 C 431.848 80.222 431.906 79.951 432.135 79.951 C 432.365 79.951 432.422 80.222 432.422 80.222 L 432.680 81.019 C 432.795 81.380 433.133 81.644 433.534 81.644 L 434.380 81.642 C 434.380 81.642 434.657 81.617 434.728 81.833 C 434.798 82.052 434.556 82.188 434.556 82.188 L 433.878 82.680 C 433.569 82.901 433.423 83.303 433.548 83.684 L 433.810 84.489 C 433.810 84.489 433.923 84.743 433.738 84.878 C 433.550 85.013 433.345 84.825 433.345 84.825 L 432.668 84.333 C 432.362 84.108 431.935 84.093 431.610 84.329 L 430.926 84.827 C 430.926 84.827 430.719 85.013 430.533 84.878 C 430.347 84.741 430.461 84.489 430.461 84.489 L 430.722 83.692 C 430.841 83.331 430.722 82.921 430.399 82.684 L 429.713 82.188 C 429.713 82.189 429.473 82.051 429.545 81.832 Z "/>
    </g>
    <g id="ID0.14994713151827455">
      <path id="ID0.968213708139956" fill="#F9ED32" opacity="0.9" d="M 444.157 89.139 C 444.219 88.926 444.504 88.951 444.504 88.951 L 445.341 88.953 C 445.722 88.955 446.076 88.715 446.199 88.334 L 446.460 87.529 C 446.460 87.529 446.518 87.258 446.747 87.258 C 446.977 87.258 447.034 87.529 447.034 87.529 L 447.292 88.326 C 447.407 88.689 447.745 88.951 448.146 88.951 L 448.992 88.951 C 448.992 88.951 449.269 88.924 449.340 89.140 C 449.410 89.359 449.168 89.497 449.168 89.497 L 448.490 89.987 C 448.181 90.208 448.035 90.612 448.160 90.991 L 448.422 91.796 C 448.422 91.796 448.535 92.050 448.350 92.185 C 448.162 92.320 447.957 92.134 447.957 92.134 L 447.280 91.640 C 446.974 91.415 446.547 91.402 446.222 91.636 L 445.538 92.134 C 445.538 92.134 445.331 92.320 445.145 92.185 C 444.959 92.050 445.073 91.796 445.073 91.796 L 445.334 91 C 445.453 90.641 445.334 90.229 445.011 89.994 L 444.325 89.498 C 444.325 89.498 444.085 89.357 444.157 89.139 Z "/>
    </g>
    <g id="ID0.22959049372002482">
      <path id="ID0.5198813127353787" fill="#F9ED32" opacity="0.9" d="M 456.936 49.836 C 456.998 49.621 457.283 49.647 457.283 49.647 L 458.120 49.649 C 458.501 49.651 458.855 49.411 458.978 49.030 L 459.239 48.225 C 459.239 48.225 459.297 47.954 459.526 47.954 C 459.756 47.954 459.813 48.227 459.813 48.227 L 460.071 49.024 C 460.186 49.385 460.524 49.649 460.925 49.649 L 461.771 49.647 C 461.771 49.647 462.048 49.622 462.119 49.836 C 462.189 50.055 461.947 50.193 461.947 50.193 L 461.269 50.685 C 460.960 50.906 460.814 51.308 460.939 51.689 L 461.201 52.494 C 461.201 52.494 461.314 52.748 461.129 52.883 C 460.941 53.018 460.736 52.830 460.736 52.830 L 460.059 52.338 C 459.753 52.111 459.326 52.098 459.001 52.334 L 458.317 52.832 C 458.317 52.832 458.110 53.018 457.924 52.881 C 457.738 52.746 457.852 52.494 457.852 52.494 L 458.113 51.697 C 458.232 51.336 458.113 50.926 457.790 50.689 L 457.104 50.193 C 457.104 50.193 456.863 50.055 456.936 49.836 Z "/>
    </g>
    <g id="ID0.7818212653510273">
      <path id="ID0.12132397387176752" fill="#F9ED32" opacity="0.9" d="M 386.332 118.146 C 386.394 117.931 386.679 117.957 386.679 117.957 L 387.516 117.959 C 387.897 117.961 388.251 117.721 388.374 117.340 L 388.635 116.535 C 388.635 116.535 388.693 116.264 388.922 116.264 C 389.152 116.264 389.209 116.537 389.209 116.537 L 389.467 117.334 C 389.582 117.695 389.920 117.959 390.321 117.959 L 391.167 117.957 C 391.167 117.957 391.444 117.932 391.515 118.146 C 391.585 118.365 391.343 118.503 391.343 118.503 L 390.665 118.995 C 390.356 119.216 390.210 119.618 390.335 119.999 L 390.597 120.804 C 390.597 120.804 390.710 121.058 390.525 121.193 C 390.337 121.328 390.132 121.140 390.132 121.140 L 389.455 120.648 C 389.149 120.421 388.722 120.408 388.397 120.644 L 387.713 121.142 C 387.713 121.142 387.506 121.328 387.320 121.191 C 387.134 121.056 387.248 120.804 387.248 120.804 L 387.509 120.007 C 387.628 119.646 387.509 119.236 387.186 118.999 L 386.500 118.503 C 386.500 118.504 386.260 118.365 386.332 118.146 Z "/>
    </g>
    <g id="ID0.4798834281973541">
      <path id="ID0.2916623926721513" fill="#F9ED32" opacity="0.9" d="M 335.665 50.480 C 335.727 50.265 336.012 50.291 336.012 50.291 L 336.849 50.293 C 337.230 50.295 337.584 50.055 337.707 49.674 L 337.968 48.869 C 337.968 48.869 338.026 48.598 338.255 48.598 C 338.485 48.598 338.542 48.869 338.542 48.869 L 338.800 49.668 C 338.915 50.029 339.253 50.291 339.654 50.291 L 340.500 50.291 C 340.500 50.291 340.777 50.264 340.848 50.480 C 340.918 50.699 340.676 50.837 340.676 50.837 L 339.998 51.327 C 339.689 51.550 339.543 51.952 339.668 52.333 L 339.930 53.138 C 339.930 53.138 340.043 53.390 339.858 53.527 C 339.670 53.662 339.465 53.474 339.465 53.474 L 338.788 52.980 C 338.482 52.755 338.055 52.742 337.730 52.976 L 337.046 53.474 C 337.046 53.474 336.839 53.660 336.653 53.525 C 336.467 53.390 336.581 53.136 336.581 53.136 L 336.842 52.339 C 336.961 51.980 336.842 51.568 336.519 51.333 L 335.833 50.837 C 335.833 50.838 335.593 50.699 335.665 50.480 Z "/>
    </g>
    <g id="ID0.79369065631181">
      <path id="ID0.6021257657557726" fill="#F9ED32" opacity="0.9" d="M 173.562 53.020 C 173.624 52.805 173.910 52.832 173.910 52.832 L 174.748 52.832 C 175.128 52.836 175.482 52.596 175.605 52.215 L 175.865 51.410 C 175.865 51.410 175.924 51.139 176.154 51.139 C 176.384 51.139 176.439 51.410 176.439 51.410 L 176.698 52.207 C 176.812 52.568 177.150 52.832 177.551 52.832 L 178.399 52.830 C 178.399 52.830 178.674 52.805 178.745 53.021 C 178.817 53.240 178.575 53.376 178.575 53.376 L 177.895 53.868 C 177.588 54.089 177.442 54.491 177.565 54.872 L 177.829 55.677 C 177.829 55.677 177.940 55.931 177.755 56.066 C 177.570 56.201 177.364 56.015 177.364 56.015 L 176.686 55.521 C 176.380 55.296 175.952 55.283 175.628 55.517 L 174.943 56.015 C 174.943 56.015 174.738 56.201 174.551 56.066 C 174.365 55.931 174.480 55.677 174.480 55.677 L 174.740 54.880 C 174.859 54.519 174.740 54.109 174.417 53.872 L 173.732 53.376 C 173.731 53.377 173.490 53.238 173.562 53.020 Z "/>
    </g>
    <g id="ID0.654695556499064">
      <path id="ID0.04896504199132323" fill="#F9ED32" opacity="0.9" d="M 190.206 80.820 C 190.268 80.605 190.554 80.631 190.554 80.631 L 191.392 80.633 C 191.772 80.635 192.126 80.395 192.249 80.014 L 192.509 79.209 C 192.509 79.209 192.568 78.938 192.798 78.938 C 193.028 78.938 193.083 79.211 193.083 79.211 L 193.342 80.008 C 193.456 80.369 193.794 80.633 194.195 80.633 L 195.043 80.631 C 195.043 80.631 195.318 80.606 195.389 80.820 C 195.461 81.039 195.219 81.177 195.219 81.177 L 194.539 81.669 C 194.232 81.890 194.086 82.292 194.209 82.673 L 194.473 83.478 C 194.473 83.478 194.584 83.732 194.399 83.867 C 194.214 84.002 194.008 83.814 194.008 83.814 L 193.330 83.322 C 193.024 83.095 192.596 83.082 192.272 83.318 L 191.587 83.816 C 191.587 83.816 191.382 84.002 191.195 83.865 C 191.009 83.730 191.124 83.478 191.124 83.478 L 191.384 82.681 C 191.503 82.320 191.384 81.910 191.061 81.673 L 190.376 81.177 C 190.376 81.178 190.135 81.039 190.206 80.820 Z "/>
    </g>
    <g id="ID0.25971684232354164">
      <path id="ID0.09358484763652086" fill="#F9ED32" opacity="0.9" d="M 254.660 94.986 C 254.722 94.771 255.008 94.797 255.008 94.797 L 255.845 94.799 C 256.225 94.801 256.580 94.561 256.703 94.180 L 256.963 93.375 C 256.963 93.375 257.022 93.104 257.251 93.104 C 257.481 93.104 257.537 93.375 257.537 93.375 L 257.795 94.174 C 257.910 94.535 258.248 94.797 258.649 94.797 L 259.496 94.797 C 259.496 94.797 259.772 94.770 259.843 94.986 C 259.914 95.205 259.672 95.343 259.672 95.343 L 258.993 95.833 C 258.685 96.056 258.539 96.458 258.663 96.839 L 258.926 97.644 C 258.926 97.644 259.038 97.896 258.853 98.033 C 258.666 98.168 258.461 97.980 258.461 97.980 L 257.784 97.486 C 257.477 97.261 257.050 97.248 256.725 97.482 L 256.041 97.980 C 256.041 97.980 255.835 98.166 255.648 98.031 C 255.462 97.896 255.577 97.642 255.577 97.642 L 255.838 96.845 C 255.957 96.486 255.838 96.074 255.514 95.839 L 254.829 95.343 C 254.829 95.344 254.588 95.205 254.660 94.986 Z "/>
    </g>
    <g id="ID0.05571232782676816">
      <path id="ID0.8985028001479805" fill="#F9ED32" opacity="0.9" d="M 30.998 102.480 C 31.060 102.265 31.346 102.291 31.346 102.291 L 32.183 102.293 C 32.563 102.295 32.918 102.055 33.041 101.674 L 33.301 100.869 C 33.301 100.869 33.360 100.598 33.589 100.598 C 33.819 100.598 33.875 100.871 33.875 100.871 L 34.133 101.668 C 34.248 102.029 34.586 102.293 34.987 102.293 L 35.834 102.291 C 35.834 102.291 36.110 102.266 36.181 102.480 C 36.252 102.699 36.010 102.837 36.010 102.837 L 35.331 103.329 C 35.023 103.550 34.877 103.952 35.001 104.333 L 35.264 105.138 C 35.264 105.138 35.376 105.392 35.191 105.527 C 35.004 105.662 34.799 105.474 34.799 105.474 L 34.122 104.982 C 33.815 104.755 33.388 104.742 33.063 104.978 L 32.379 105.476 C 32.379 105.476 32.173 105.662 31.986 105.525 C 31.800 105.390 31.915 105.138 31.915 105.138 L 32.176 104.341 C 32.295 103.980 32.176 103.570 31.852 103.333 L 31.167 102.837 C 31.167 102.838 30.926 102.699 30.998 102.480 Z "/>
    </g>
    <g id="ID0.18996469816192985">
      <path id="ID0.4455884797498584" fill="#F9ED32" opacity="0.9" d="M 75.210 37.832 C 75.272 37.617 75.558 37.643 75.558 37.643 L 76.395 37.645 C 76.775 37.647 77.130 37.407 77.253 37.026 L 77.513 36.221 C 77.513 36.221 77.572 35.950 77.801 35.950 C 78.031 35.950 78.087 36.223 78.087 36.223 L 78.345 37.020 C 78.460 37.381 78.798 37.645 79.199 37.645 L 80.046 37.643 C 80.046 37.643 80.322 37.618 80.393 37.832 C 80.464 38.051 80.222 38.189 80.222 38.189 L 79.543 38.681 C 79.235 38.902 79.089 39.304 79.213 39.685 L 79.476 40.490 C 79.476 40.490 79.588 40.744 79.403 40.879 C 79.216 41.014 79.011 40.826 79.011 40.826 L 78.334 40.334 C 78.027 40.107 77.600 40.094 77.275 40.330 L 76.591 40.828 C 76.591 40.828 76.385 41.014 76.198 40.877 C 76.012 40.742 76.127 40.490 76.127 40.490 L 76.388 39.693 C 76.507 39.332 76.388 38.922 76.064 38.685 L 75.379 38.189 C 75.379 38.189 75.138 38.051 75.210 37.832 Z "/>
    </g>
    <g id="ID0.01189836161211133">
      <path id="ID0.08101476123556495" fill="#F9ED32" opacity="0.9" d="M 99.210 44.832 C 99.272 44.617 99.558 44.643 99.558 44.643 L 100.395 44.645 C 100.775 44.647 101.130 44.407 101.253 44.026 L 101.513 43.221 C 101.513 43.221 101.572 42.950 101.801 42.950 C 102.031 42.950 102.087 43.223 102.087 43.223 L 102.345 44.020 C 102.460 44.381 102.798 44.645 103.199 44.645 L 104.046 44.643 C 104.046 44.643 104.322 44.618 104.393 44.832 C 104.464 45.051 104.222 45.189 104.222 45.189 L 103.543 45.681 C 103.235 45.902 103.089 46.304 103.213 46.685 L 103.476 47.490 C 103.476 47.490 103.588 47.744 103.403 47.879 C 103.216 48.014 103.011 47.826 103.011 47.826 L 102.334 47.334 C 102.027 47.107 101.600 47.094 101.275 47.330 L 100.591 47.828 C 100.591 47.828 100.385 48.014 100.198 47.877 C 100.012 47.742 100.127 47.490 100.127 47.490 L 100.388 46.693 C 100.507 46.332 100.388 45.922 100.064 45.685 L 99.379 45.189 C 99.379 45.189 99.138 45.051 99.210 44.832 Z "/>
    </g>
    <g id="ID0.46939676254987717">
      <path id="ID0.39101100992411375" fill="#F9ED32" opacity="0.9" d="M 307.072 60.635 C 307.134 60.420 307.420 60.446 307.420 60.446 L 308.257 60.448 C 308.637 60.450 308.992 60.210 309.115 59.829 L 309.375 59.024 C 309.375 59.024 309.434 58.753 309.663 58.753 C 309.893 58.753 309.949 59.024 309.949 59.024 L 310.207 59.823 C 310.322 60.184 310.660 60.446 311.061 60.446 L 311.908 60.446 C 311.908 60.446 312.184 60.419 312.255 60.635 C 312.326 60.854 312.084 60.992 312.084 60.992 L 311.405 61.482 C 311.097 61.705 310.951 62.107 311.075 62.488 L 311.338 63.293 C 311.338 63.293 311.450 63.545 311.265 63.682 C 311.078 63.817 310.873 63.629 310.873 63.629 L 310.196 63.135 C 309.889 62.910 309.462 62.897 309.137 63.131 L 308.453 63.629 C 308.453 63.629 308.247 63.815 308.060 63.680 C 307.874 63.545 307.989 63.291 307.989 63.291 L 308.250 62.494 C 308.369 62.135 308.250 61.723 307.926 61.488 L 307.241 60.992 C 307.241 60.992 307 60.854 307.072 60.635 Z "/>
    </g>
    <g id="ID0.3712712451815605">
      <path id="ID0.33707590168341994" fill="#F9ED32" opacity="0.9" d="M 172.540 35.885 C 172.657 35.481 173.194 35.531 173.194 35.531 L 174.772 35.533 C 175.489 35.537 176.157 35.084 176.389 34.367 L 176.879 32.849 C 176.879 32.849 176.988 32.339 177.422 32.339 C 177.856 32.339 177.961 32.851 177.961 32.851 L 178.447 34.353 C 178.664 35.035 179.301 35.531 180.054 35.531 L 181.650 35.529 C 181.650 35.529 182.171 35.480 182.304 35.886 C 182.437 36.298 181.982 36.558 181.982 36.558 L 180.703 37.484 C 180.123 37.902 179.848 38.662 180.082 39.379 L 180.576 40.895 C 180.576 40.895 180.789 41.372 180.437 41.627 C 180.087 41.881 179.699 41.529 179.699 41.529 L 178.424 40.599 C 177.848 40.175 177.041 40.148 176.432 40.591 L 175.143 41.530 C 175.143 41.530 174.754 41.878 174.403 41.624 C 174.053 41.370 174.268 40.892 174.268 40.892 L 174.758 39.392 C 174.983 38.712 174.758 37.937 174.149 37.494 L 172.858 36.558 C 172.858 36.559 172.405 36.297 172.540 35.885 Z "/>
    </g>
    <g id="ID0.984120212495327">
      <path id="ID0.6520255003124475" fill="#F9ED32" opacity="0.9" d="M 197.903 70.057 C 198.020 69.653 198.557 69.702 198.557 69.702 L 200.135 69.704 C 200.852 69.708 201.520 69.257 201.752 68.538 L 202.242 67.022 C 202.242 67.022 202.351 66.510 202.785 66.510 C 203.219 66.510 203.324 67.022 203.324 67.022 L 203.810 68.526 C 204.027 69.208 204.664 69.702 205.417 69.702 L 207.013 69.700 C 207.013 69.700 207.534 69.651 207.666 70.059 C 207.800 70.471 207.345 70.731 207.345 70.731 L 206.066 71.657 C 205.486 72.073 205.211 72.833 205.444 73.550 L 205.939 75.066 C 205.939 75.066 206.151 75.545 205.800 75.798 C 205.449 76.051 205.062 75.700 205.062 75.700 L 203.787 74.770 C 203.211 74.346 202.404 74.319 201.794 74.762 L 200.505 75.701 C 200.505 75.701 200.116 76.051 199.766 75.795 C 199.416 75.541 199.631 75.065 199.631 75.065 L 200.121 73.563 C 200.346 72.883 200.121 72.108 199.512 71.667 L 198.221 70.731 C 198.222 70.730 197.769 70.469 197.903 70.057 Z "/>
    </g>
    <g id="ID0.7203896194696426">
      <path id="ID0.9087391891516745" fill="#58595B" d="M 33.175 268.006 C 33.520 266.627 34.337 268.533 38.668 269.274 C 42.999 270.012 42.682 267.374 46.590 267.161 C 50.498 266.950 53.878 267.479 55.885 266.634 C 57.892 265.789 57.469 264.521 58.631 264.521 C 59.793 264.521 61.589 266.316 61.589 268.218 C 61.589 270.118 59.794 272.548 52.294 273.710 C 44.794 274.872 41.415 276.140 37.612 273.921 C 33.809 271.702 32.541 270.541 33.175 268.006 Z "/>
      <path id="ID0.7529001096263528" fill="none" stroke="#9B8579" d="M 18.704 279.836 C 18.704 279.836 24.091 277.090 26.415 273.182 C 28.739 269.274 29.689 265.153 29.689 265.153 C 29.689 265.153 31.062 262.618 33.069 262.512 C 35.076 262.406 33.914 265.049 37.400 265.366 C 40.886 265.683 41.519 265.788 48.068 264.309 C 54.617 262.830 56.941 261.668 56.941 261.668 L 57.786 259.660 C 57.786 259.660 60.955 258.816 61.800 259.873 C 62.645 260.928 61.272 263.887 65.285 266.633 C 69.298 269.379 73.418 271.490 76.164 272.125 C 78.910 272.758 80.706 272.441 80.706 272.441 "/>
      <path id="ID0.9429569453932345" fill="none" stroke="#9B8579" d="M 33.175 268.006 C 33.520 266.627 34.337 268.533 38.668 269.274 C 42.999 270.012 42.682 267.374 46.590 267.161 C 50.498 266.950 53.878 267.479 55.885 266.634 C 57.892 265.789 57.469 264.521 58.631 264.521 C 59.793 264.521 61.589 266.316 61.589 268.218 C 61.589 270.118 59.794 272.548 52.294 273.710 C 44.794 274.872 41.415 276.140 37.612 273.921 C 33.809 271.702 32.541 270.541 33.175 268.006 Z "/>
      <path id="ID0.36393726896494627" fill="none" stroke="#9B8579" d="M 31.273 272.758 C 31.273 272.758 28.527 278.569 25.569 280.574 "/>
      <path id="ID0.6351799326948822" fill="none" stroke="#9B8579" d="M 33.386 274.660 C 33.386 274.660 32.541 278.779 28.105 280.890 "/>
      <path id="ID0.6123093548230827" fill="none" stroke="#9B8579" d="M 36.344 278.355 C 36.344 278.355 35.710 280.255 34.020 280.996 "/>
      <path id="ID0.1556938122957945" fill="none" stroke="#9B8579" d="M 38.245 279.836 C 38.245 279.836 38.140 282.686 36.450 283.004 "/>
      <path id="ID0.7251530005596578" fill="none" stroke="#9B8579" d="M 57.046 277.195 C 57.046 277.195 55.884 279.306 58.419 279.941 "/>
      <path id="ID0.5078398766927421" fill="none" stroke="#9B8579" d="M 64.334 274.236 C 64.334 274.236 64.228 276.033 66.658 276.771 "/>
      <path id="ID0.5307429907843471" fill="none" stroke="#9B8579" d="M 66.658 271.914 C 66.658 271.914 66.342 274.660 71.834 275.293 "/>
    </g>
    <g id="ID0.5963257779367268">
      <path id="ID0.3118097628466785" fill="#58595B" d="M 86.938 262.303 C 88.225 260.444 90.424 262.198 94.860 261.774 C 99.296 261.352 109.330 260.190 109.330 260.190 C 109.330 260.190 111.337 259.663 112.393 260.295 C 113.449 260.930 113.555 263.781 111.231 264.733 C 108.907 265.682 104.999 265.471 102.887 265.471 C 100.775 265.471 97.289 265.471 93.592 265.471 C 89.895 265.471 88.205 265.787 87.043 264.520 C 85.881 263.253 85.988 263.676 86.938 262.303 Z "/>
      <path id="ID0.07436399208381772" fill="none" stroke="#9B8579" d="M 76.798 267.266 C 76.798 267.266 79.227 267.795 81.129 265.260 C 83.031 262.725 84.192 259.979 84.192 259.979 C 84.192 259.979 83.453 255.649 84.509 255.225 C 85.565 254.803 86.198 255.754 87.255 255.754 C 88.312 255.754 89.685 255.436 90.002 255.859 C 90.319 256.281 88.101 258.076 92.431 258.711 C 96.762 259.344 105.423 257.336 107.007 257.020 C 108.591 256.704 110.387 257.125 111.021 256.915 C 111.655 256.705 112.500 255.647 112.500 255.647 L 114.507 257.655 C 114.507 257.655 113.979 259.557 115.035 261.774 C 116.091 263.993 114.506 264.626 117.887 266.210 C 121.267 267.796 123.591 266.528 123.591 266.528 "/>
      <path id="ID0.18222167436033487" fill="none" stroke="#9B8579" d="M 86.938 262.303 C 88.225 260.444 90.424 262.198 94.860 261.774 C 99.296 261.352 109.330 260.190 109.330 260.190 C 109.330 260.190 111.337 259.663 112.393 260.295 C 113.449 260.930 113.555 263.781 111.231 264.733 C 108.907 265.682 104.999 265.471 102.887 265.471 C 100.775 265.471 97.289 265.471 93.592 265.471 C 89.895 265.471 88.205 265.787 87.043 264.520 C 85.881 263.253 85.988 263.676 86.938 262.303 Z "/>
      <path id="ID0.8163749827072024" fill="none" stroke="#9B8579" d="M 81.234 268.533 C 81.234 268.533 83.981 267.267 84.403 265.576 "/>
      <path id="ID0.7240793695673347" fill="none" stroke="#9B8579" d="M 87.255 266.527 C 87.255 266.527 87.255 267.476 85.987 268.427 "/>
      <path id="ID0.5861722864210606" fill="none" stroke="#9B8579" d="M 113.556 265.365 C 113.556 265.365 112.500 267.054 115.880 267.689 "/>
      <path id="ID0.29811478964984417" fill="none" stroke="#9B8579" d="M 111.337 267.055 C 111.337 267.055 111.020 268.534 113.238 269.063 "/>
    </g>
    <g id="ID0.8989215823821723">
      <path id="ID0.3997704014182091" fill="#58595B" d="M 406.938 259.635 C 408.224 257.778 410.423 259.530 414.860 259.108 C 419.297 258.684 429.330 257.524 429.330 257.524 C 429.330 257.524 431.338 256.995 432.394 257.629 C 433.450 258.262 433.555 261.115 431.232 262.065 C 428.908 263.016 425 262.805 422.887 262.805 C 420.774 262.805 417.288 262.805 413.592 262.805 C 409.896 262.805 408.204 263.121 407.043 261.854 C 405.882 260.587 405.988 261.008 406.938 259.635 Z "/>
      <path id="ID0.7040235223248601" fill="none" stroke="#9B8579" d="M 396.798 264.600 C 396.798 264.600 399.227 265.127 401.129 262.592 C 403.029 260.057 404.191 257.311 404.191 257.311 C 404.191 257.311 403.452 252.981 404.507 252.559 C 405.564 252.135 406.196 253.086 407.253 253.086 C 408.310 253.086 409.683 252.770 410 253.191 C 410.317 253.615 408.099 255.410 412.429 256.043 C 416.760 256.678 425.421 254.670 427.005 254.354 C 428.590 254.038 430.386 254.459 431.020 254.249 C 431.654 254.039 432.499 252.981 432.499 252.981 L 434.506 254.987 C 434.506 254.987 433.979 256.889 435.034 259.108 C 436.090 261.325 434.506 261.958 437.886 263.544 C 441.266 265.128 443.590 263.860 443.590 263.860 "/>
      <path id="ID0.4077688381075859" fill="none" stroke="#9B8579" d="M 406.938 259.635 C 408.224 257.778 410.423 259.530 414.860 259.108 C 419.297 258.684 429.330 257.524 429.330 257.524 C 429.330 257.524 431.338 256.995 432.394 257.629 C 433.450 258.262 433.555 261.115 431.232 262.065 C 428.908 263.016 425 262.805 422.887 262.805 C 420.774 262.805 417.288 262.805 413.592 262.805 C 409.896 262.805 408.204 263.121 407.043 261.854 C 405.882 260.587 405.988 261.008 406.938 259.635 Z "/>
      <path id="ID0.33018803503364325" fill="none" stroke="#9B8579" d="M 401.234 265.867 C 401.234 265.867 403.980 264.599 404.403 262.910 "/>
      <path id="ID0.6131622144021094" fill="none" stroke="#9B8579" d="M 407.256 263.859 C 407.256 263.859 407.256 264.810 405.988 265.761 "/>
      <path id="ID0.8545182733796537" fill="none" stroke="#9B8579" d="M 433.556 262.699 C 433.556 262.699 432.500 264.388 435.879 265.021 "/>
      <path id="ID0.1395094650797546" fill="none" stroke="#9B8579" d="M 431.338 264.389 C 431.338 264.389 431.021 265.868 433.238 266.395 "/>
    </g>
    <g id="ID0.520608801394701">
      <path id="ID0.28783931070938706" fill="#58595B" d="M 174.560 272.248 C 174.560 272.248 173.185 271.998 172.560 273.373 C 171.935 274.748 172.810 276.248 177.060 276.248 C 181.310 276.248 187.185 276.123 189.685 275.373 C 192.185 274.623 194.935 273.873 194.685 272.248 C 194.435 270.623 194.435 270.248 193.560 270.123 C 192.685 269.998 189.560 270.373 188.935 270.498 C 188.310 270.623 183.935 272.123 181.435 272.248 C 178.935 272.373 174.560 272.248 174.560 272.248 Z "/>
      <path id="ID0.9363619247451425" fill="none" stroke="#9B8579" d="M 160.685 283.373 C 160.685 283.373 167.060 280.498 169.060 276.748 C 171.060 272.998 171.810 270.373 171.810 270.373 L 171.810 268.748 L 172.435 268.248 C 172.435 268.248 173.685 269.498 175.810 269.498 C 177.935 269.498 178.560 271.123 182.310 269.998 C 186.060 268.873 186.185 268.498 187.060 268.248 C 187.935 267.998 188.810 268.123 188.810 268.123 L 192.310 267.248 L 195.810 267.498 C 195.810 267.498 195.935 268.873 196.060 269.373 C 196.185 269.873 196.685 270.498 197.060 271.248 C 197.435 271.998 197.810 273.873 198.310 274.248 C 198.810 274.623 199.435 277.123 203.310 277.873 C 207.185 278.623 211.185 278.373 211.185 278.373 "/>
      <path id="ID0.3308141836896539" fill="none" stroke="#9B8579" d="M 174.560 272.248 C 174.560 272.248 173.185 271.998 172.560 273.373 C 171.935 274.748 172.810 276.248 177.060 276.248 C 181.310 276.248 187.185 276.123 189.685 275.373 C 192.185 274.623 194.935 273.873 194.685 272.248 C 194.435 270.623 194.435 270.248 193.560 270.123 C 192.685 269.998 189.560 270.373 188.935 270.498 C 188.310 270.623 183.935 272.123 181.435 272.248 C 178.935 272.373 174.560 272.248 174.560 272.248 Z "/>
      <path id="ID0.09564591757953167" fill="none" stroke="#9B8579" d="M 172.310 277.998 C 172.310 277.998 170.560 281.498 169.435 282.998 "/>
      <path id="ID0.0918340333737433" fill="none" stroke="#9B8579" d="M 177.060 280.123 C 177.060 280.123 176.810 282.873 175.685 283.873 "/>
      <path id="ID0.6444942429661751" fill="none" stroke="#9B8579" d="M 187.185 278.748 C 187.185 278.748 186.810 280.248 188.810 281.748 "/>
      <path id="ID0.8892401675693691" fill="none" stroke="#9B8579" d="M 195.310 276.248 C 195.310 276.248 194.560 279.373 200.060 280.623 "/>
    </g>
    <g id="ID0.4048136272467673">
      <path id="ID0.18084942689165473" fill="#726658" d="M 387.580 63.397 C 391.928 63.397 395.868 64.964 398.720 67.494 C 401.573 70.025 403.339 73.520 403.339 77.377 C 403.339 81.234 401.573 84.729 398.720 87.260 C 395.868 89.790 391.928 91.357 387.580 91.357 C 383.232 91.357 379.292 89.790 376.440 87.260 C 373.587 84.729 371.821 81.234 371.821 77.377 C 371.821 73.520 373.587 70.025 376.440 67.494 C 379.292 64.964 383.232 63.397 387.580 63.397 Z "/>
      <path id="ID0.31136173754930496" fill="none" stroke="#FFFFFF" stroke-width="0.5" d="M 387.580 63.397 C 391.928 63.397 395.868 64.964 398.720 67.494 C 401.573 70.025 403.339 73.520 403.339 77.377 C 403.339 81.234 401.573 84.729 398.720 87.260 C 395.868 89.790 391.928 91.357 387.580 91.357 C 383.232 91.357 379.292 89.790 376.440 87.260 C 373.587 84.729 371.821 81.234 371.821 77.377 C 371.821 73.520 373.587 70.025 376.440 67.494 C 379.292 64.964 383.232 63.397 387.580 63.397 Z "/>
      <path id="ID0.008379314560443163" fill="none" stroke="#C2B59B" stroke-width="0.5" d="M 402.788 81.062 C 398.103 82.215 392.329 82.320 386.291 81.109 C 380.710 79.989 375.771 77.921 371.994 75.347 "/>
      <path id="ID0.7727387510240078" fill="none" stroke="#C2B59B" stroke-width="0.5" d="M 401.721 83.459 C 398.989 84.803 395.796 85.230 392.642 84.668 "/>
      <path id="ID0.9976596715860069" fill="none" stroke="#C2B59B" stroke-width="0.5" d="M 376.914 83.637 C 375.729 83.611 374.518 83.489 373.299 83.267 "/>
      <path id="ID0.29223089199513197" fill="none" stroke="#C2B59B" stroke-width="0.5" d="M 390.556 84.350 C 387.816 86.711 383.547 88.261 378.488 88.763 "/>
      <path id="ID0.21897242637351155" fill="none" stroke="#C2B59B" stroke-width="0.5" d="M 389.826 81.677 C 387.082 84.640 382.157 86.547 376.210 87.031 "/>
      <path id="ID0.6434739804826677" fill="none" stroke="#C2B59B" stroke-width="0.5" d="M 394.793 81.969 C 393.713 84.122 391.739 85.644 389.263 86.471 "/>
      <path id="ID0.009400151204317808" fill="none" stroke="#C2B59B" stroke-width="0.5" d="M 391.601 81.935 C 390.057 86.006 387.643 89.264 384.834 91.161 "/>
      <path id="ID0.9303994295187294" fill="none" stroke="#C2B59B" stroke-width="0.5" d="M 394.282 90.037 C 392.733 89.382 391.213 88.502 389.777 87.396 C 389.537 87.212 389.301 87.023 389.072 86.831 "/>
      <path id="ID0.5320035596378148" fill="none" stroke="#C2B59B" stroke-width="0.5" d="M 397.723 88.135 C 395.454 87.838 393.118 87.057 390.898 85.789 "/>
      <path id="ID0.8466237452812493" fill="none" stroke="#C2B59B" stroke-width="0.5" d="M 379.453 86.592 C 376.633 84.078 374.653 80.580 374.009 76.612 "/>
      <path id="ID0.9313998827710748" fill="none" stroke="#C2B59B" stroke-width="0.5" d="M 403.271 79.182 C 398.305 80.098 392.283 78.309 387.427 73.980 C 384.366 71.251 382.255 67.944 381.199 64.610 "/>
      <path id="ID0.7600072803907096" fill="none" stroke="#C2B59B" stroke-width="0.5" d="M 395.467 65.200 C 396.111 66.549 396.475 68.088 396.475 69.721 C 396.475 72.937 395.064 75.786 392.894 77.536 "/>
      <path id="ID0.18514750292524695" fill="none" stroke="#C2B59B" stroke-width="0.5" d="M 378.849 78.963 C 378.724 78.344 378.660 77.705 378.660 77.053 C 378.660 71.226 383.848 66.502 390.250 66.502 C 396.652 66.502 401.840 71.226 401.840 77.053 C 401.840 77.860 401.739 78.646 401.551 79.401 "/>
      <g id="ID0.9750405363738537">
        <path id="ID0.5117069105617702" fill="#F9ED32" opacity="0.8" d="M 402.236 82.566 C 411.388 80.275 417.452 77.123 417.125 74.349 C 416.658 70.382 403.283 68.693 387.252 70.579 C 371.219 72.466 358.601 77.212 359.067 81.179 C 359.388 83.900 365.774 85.548 374.924 85.708 C 374.924 85.708 374.340 85.017 374.172 84.816 C 374.003 84.616 373.685 84.018 373.685 84.018 C 369.575 83.609 366.940 82.668 366.780 81.305 C 366.465 78.627 375.806 75.328 387.646 73.936 C 399.485 72.542 409.338 73.584 409.654 76.262 C 409.824 77.703 407.190 79.326 402.873 80.737 C 402.873 80.737 402.669 81.425 402.593 81.639 C 402.516 81.855 402.236 82.566 402.236 82.566 Z "/>
      </g>
      <g id="ID0.8088919310830534">
        <path id="ID0.13767589628696442" fill="none" stroke="#C2B59B" stroke-width="0.5" d="M 402.873 80.738 C 407.190 79.328 409.824 77.705 409.654 76.263 C 409.339 73.585 399.485 72.543 387.646 73.937 C 375.806 75.330 366.464 78.628 366.780 81.306 C 366.940 82.669 369.575 83.610 373.685 84.019 "/>
        <path id="ID0.5085245319642127" fill="none" stroke="#C2B59B" stroke-width="0.5" d="M 402.236 82.566 C 411.388 80.275 417.452 77.123 417.125 74.349 C 416.658 70.382 403.283 68.693 387.252 70.579 C 371.219 72.466 358.601 77.212 359.067 81.179 C 359.388 83.900 365.774 85.548 374.924 85.708 "/>
      </g>
    </g>
    <path id="ID0.08579614153131843" fill="none" stroke="#C2B59B" stroke-width="0.5" d="M 0 247.199 C 2.640 247.193 10.039 247.114 16.983 246.462 C 21.912 245.999 25.431 248.663 33.250 246.464 C 41.250 244.214 38.104 248.492 61.095 247.299 C 84.086 246.104 83.985 244.401 90.482 243.700 C 94.267 243.292 97.647 244.824 99.578 245.099 C 101.509 245.374 115.763 243.745 118.937 243.467 C 122.111 243.192 123.491 244.707 126.665 245.399 C 129.839 246.088 147.806 246.745 159.950 244.500 C 171.845 242.301 174.997 247.647 177.343 248.198 C 179.689 248.751 190.104 248.694 194.244 248.555 C 198.384 248.418 198.660 247.176 198.660 247.176 C 198.660 247.176 203.735 247.549 205.668 247.963 C 207.601 248.377 213.036 245.734 235.668 244.630 C 258.301 243.525 272.439 245.555 272.439 245.555 C 272.439 245.555 273.461 244.415 274.565 244.554 C 275.669 244.691 286.175 246.110 305.632 245.696 C 305.632 245.696 317.890 243.254 320.175 243.172 C 343.183 242.354 343.831 245.129 345.177 244.939 C 346.194 244.795 347.848 243.897 349.799 243.834 C 355.327 243.654 365.861 246.105 369.038 245.881 C 372.215 245.657 375.339 245.394 378.584 245.548 C 383.834 245.798 397.377 246.887 409.168 243.215 C 420.961 239.545 424.665 244.458 427.001 245.048 C 429.339 245.638 437.943 246.285 442.084 246.215 C 446.225 246.145 449.908 245.103 451.834 245.548 C 453.557 245.948 462.250 245.986 480.241 245.447 "/>
    <g id="ID0.564079909119755">
      <path id="ID0.9501758622936904" fill="#726658" d="M 202.375 255.457 C 202.375 255.457 208.750 252.582 210.750 248.832 C 212.750 245.082 213.500 242.457 213.500 242.457 L 213.500 240.832 L 214.125 240.332 C 214.125 240.332 215.375 241.582 217.500 241.582 C 219.625 241.582 220.250 243.207 224 242.082 C 227.750 240.957 227.875 240.582 228.750 240.332 C 229.625 240.082 230.500 240.207 230.500 240.207 L 234 239.332 L 237.500 239.582 C 237.500 239.582 237.625 240.957 237.750 241.457 C 237.875 241.957 238.375 242.582 238.750 243.332 C 239.125 244.082 239.500 245.957 240 246.332 C 240.500 246.707 241.125 249.207 245 249.957 C 248.875 250.707 252.875 250.457 252.875 250.457 L 252.875 256.338 L 222.187 262.904 L 202.025 260.220 L 202.375 255.457 Z "/>
      <path id="ID0.6560536688193679" fill="#58595B" d="M 216.250 244.332 C 216.250 244.332 214.875 244.082 214.250 245.457 C 213.625 246.832 214.500 248.332 218.750 248.332 C 223 248.332 228.875 248.207 231.375 247.457 C 233.875 246.707 236.625 245.957 236.375 244.332 C 236.125 242.707 236.125 242.332 235.250 242.207 C 234.375 242.082 231.250 242.457 230.625 242.582 C 230 242.707 225.625 244.207 223.125 244.332 C 220.625 244.457 216.250 244.332 216.250 244.332 Z "/>
      <path id="ID0.7296256003901362" fill="none" stroke="#9B8579" d="M 202.375 255.457 C 202.375 255.457 208.750 252.582 210.750 248.832 C 212.750 245.082 213.500 242.457 213.500 242.457 L 213.500 240.832 L 214.125 240.332 C 214.125 240.332 215.375 241.582 217.500 241.582 C 219.625 241.582 220.250 243.207 224 242.082 C 227.750 240.957 227.875 240.582 228.750 240.332 C 229.625 240.082 230.500 240.207 230.500 240.207 L 234 239.332 L 237.500 239.582 C 237.500 239.582 237.625 240.957 237.750 241.457 C 237.875 241.957 238.375 242.582 238.750 243.332 C 239.125 244.082 239.500 245.957 240 246.332 C 240.500 246.707 241.125 249.207 245 249.957 C 248.875 250.707 252.875 250.457 252.875 250.457 "/>
      <path id="ID0.895696020219475" fill="none" stroke="#9B8579" d="M 216.250 244.332 C 216.250 244.332 214.875 244.082 214.250 245.457 C 213.625 246.832 214.500 248.332 218.750 248.332 C 223 248.332 228.875 248.207 231.375 247.457 C 233.875 246.707 236.625 245.957 236.375 244.332 C 236.125 242.707 236.125 242.332 235.250 242.207 C 234.375 242.082 231.250 242.457 230.625 242.582 C 230 242.707 225.625 244.207 223.125 244.332 C 220.625 244.457 216.250 244.332 216.250 244.332 Z "/>
      <path id="ID0.546288930810988" fill="none" stroke="#9B8579" d="M 214 250.082 C 214 250.082 212.250 253.582 211.125 255.082 "/>
      <path id="ID0.6266039027832448" fill="none" stroke="#9B8579" d="M 218.750 252.207 C 218.750 252.207 218.500 254.957 217.375 255.957 "/>
      <path id="ID0.7214935920201242" fill="none" stroke="#9B8579" d="M 228.875 250.832 C 228.875 250.832 228.500 252.332 230.500 253.832 "/>
      <path id="ID0.46894947439432144" fill="none" stroke="#9B8579" d="M 237 248.332 C 237 248.332 236.250 251.457 241.750 252.707 "/>
    </g>
    <g id="ID0.07956676883623004">
      <g id="ID0.4827907718718052">
        <path id="ID0.03381891641765833" fill="#726658" d="M 300.648 255.537 C 300.648 255.537 304.470 256.494 306.955 254.391 C 309.438 252.289 310.967 250.952 312.113 248.467 C 313.259 245.982 312.416 244.049 312.416 244.049 L 313.088 243.377 C 313.088 243.377 313.827 243.242 315.171 243.176 C 316.515 243.108 317.321 242.705 321.621 242.975 C 325.922 243.243 327.870 244.991 332.372 243.647 C 336.874 242.303 337.882 241.629 337.882 241.629 L 339.025 241.764 C 339.025 241.764 339.025 244.991 340.235 246.334 C 341.444 247.678 342.519 250.029 344.737 250.029 C 346.954 250.029 348.028 249.691 348.566 249.625 L 348.566 265.027 L 300.830 265.027 L 300.648 255.537 Z "/>
        <path id="ID0.39725159015506506" fill="#58595B" d="M 326.660 246.736 C 331.562 246.468 337.211 245.863 337.681 247.273 C 338.151 248.685 333.717 249.962 327.333 250.500 C 320.949 251.038 314.902 251.842 314.768 249.223 C 314.633 246.602 321.756 247.006 326.660 246.736 Z "/>
        <path id="ID0.37599785765632987" fill="none" stroke="#9B8579" d="M 326.660 246.736 C 331.562 246.468 337.211 245.863 337.681 247.273 C 338.151 248.685 333.717 249.962 327.333 250.500 C 320.949 251.038 314.902 251.842 314.768 249.223 C 314.633 246.602 321.756 247.006 326.660 246.736 Z "/>
        <path id="ID0.031149523798376322" fill="none" stroke="#9B8579" d="M 313.021 250.836 C 313.021 250.836 313.491 255.742 308.653 258.295 "/>
        <path id="ID0.1776973232626915" fill="none" stroke="#9B8579" d="M 315.641 254.465 C 315.641 254.465 314.903 257.354 313.559 258.967 "/>
        <path id="ID0.5452001509256661" fill="none" stroke="#9B8579" d="M 318.262 255.338 C 318.262 255.338 317.389 257.957 317.993 259.772 "/>
        <path id="ID0.4590404615737498" fill="none" stroke="#9B8579" d="M 335.664 252.314 C 335.664 252.314 334.858 253.388 336.538 255.068 "/>
        <path id="ID0.5638832664117217" fill="none" stroke="#9B8579" d="M 338.554 251.574 C 338.554 251.574 337.882 253.119 341.376 254.666 "/>
      </g>
      <path id="ID0.19946175161749125" fill="none" stroke="#9B8579" d="M 300.648 255.537 C 300.648 255.537 304.470 256.494 306.955 254.391 C 309.438 252.289 310.967 250.952 312.113 248.467 C 313.259 245.982 312.416 244.049 312.416 244.049 L 313.088 243.377 C 313.088 243.377 313.827 243.242 315.171 243.176 C 316.515 243.108 317.321 242.705 321.621 242.975 C 325.922 243.243 327.870 244.991 332.372 243.647 C 336.874 242.303 337.882 241.629 337.882 241.629 L 339.025 241.764 C 339.025 241.764 339.025 244.991 340.235 246.334 C 341.444 247.678 342.519 250.029 344.737 250.029 C 346.954 250.029 348.028 249.691 348.566 249.625 "/>
    </g>
  </g>
  <text id="ID0.906866455450654" fill="#FFFFFF" x="240" y="162.25" text-anchor="start" font-family="Helvetica" font-size="22" transform="matrix(6.580589294433594, 0, 0, 6.580589294433594, 199, 64.2)">2</text>
</svg>