<?xml version="1.0" encoding="utf-8"?>
<!-- Generator: Adobe Illustrator 22.0.1, SVG Export Plug-In . SVG Version: 6.00 Build 0)  -->
<svg version="1.1" id="레이어_1" xmlns="http://www.w3.org/2000/svg" xmlns:xlink="http://www.w3.org/1999/xlink" x="0px"
	 y="0px" viewBox="0 0 480 360" style="enable-background:new 0 0 480 360;" xml:space="preserve">
<style type="text/css">
	.st0{fill:#D0BDEA;}
	.st1{fill:#EAD6FF;}
	.st2{fill:#F2E9FF;}
	.st3{fill:none;stroke:#FFFFFF;}
	.st4{enable-background:new    ;}
</style>
<g id="ID0.9136589458212256">
	<path id="ID0.6814516433514655" class="st0" d="M0,0h480v360H0V0z"/>
	<g id="ID0.17063987581059337">
		<g id="layer1">
			<path id="path2417" class="st1" d="M224.6,336.3c-8.4-9.4-29.5-27.9-46.8-40.9c-51.2-38.7-58.2-44.3-79-63.4
				c-38.4-35.4-54.6-70.9-54.6-119c0-23.5,1.6-32.5,8.2-46.4C63.6,43.1,80,25.7,101,15c14.9-7.6,22.2-10.9,47.1-11.1
				c26-0.1,31.5,2.9,46.8,11.3c18.6,10.2,37.8,32.1,41.7,47.6l2.4,9.6l6-13.2c34.1-74.6,142.9-73.5,180.8,1.9
				c12,23.9,13.3,74.9,2.7,103.7c-13.9,37.5-40,66.1-100.3,109.9c-39.6,28.7-84.4,72.2-87.5,78.3
				C237.1,360.1,240.5,354.2,224.6,336.3z"/>
		</g>
		<g id="layer1_1_">
			<path id="path2417_1_" class="st2" d="M226.9,302.4c-7.1-7.4-24.9-21.8-39.5-32.1c-43.3-30.3-49.2-34.7-66.8-49.7
				c-32.4-27.7-46.2-55.5-46.1-93.2c0-18.4,1.4-25.5,6.9-36.3c9.4-18.4,23.3-32.1,41.1-40.4c12.6-5.9,18.8-8.6,39.8-8.7
				c22-0.1,26.6,2.3,39.5,8.8c15.7,8,31.9,25.1,35.3,37.3l2.1,7.5l5.1-10.3C273.1,26.9,365,27.8,397,86.8
				c10.2,18.7,11.3,58.7,2.3,81.3c-11.7,29.4-33.8,51.8-84.8,86.1c-33.4,22.5-71.3,56.6-73.9,61.4
				C237.5,321.2,240.4,316.5,226.9,302.4z"/>
		</g>
	</g>
	<path id="ID0.184414304792881" class="st3" d="M450.4,0.8L450.4,0.8L450.4,0.8L450.4,0.8L450.4,0.8z"/>
</g>
<g class="st4">
	<path d="M155.4,141.4c0.5,0,1.6-0.1,3.4-0.3c1.8-0.2,3.5-0.4,5.2-0.6c1.7-0.2,3.4-0.1,5.1,0.2c1.8,0.3,3,0.8,3.8,1.7
		c0.4,1,0.7,2.1,0.8,3.3c0.1,1.2,0.1,2.3-0.1,3.3c-0.1,1-0.2,2.1-0.3,3.3c0,1.2,0.1,2.4,0.3,3.4c0.5,2.4,0.8,4.2,0.7,5.4
		c0,0.6,0,1.6,0.1,2.9c0.1,1.4,0.1,2.6,0.1,3.7c0,1.1-0.3,2-0.6,2.7c-0.4,0.8-0.9,1.2-1.6,1.4c-1,0.3-2.1,0.5-3.4,0.6
		c-1.3,0.1-2.4,0.1-3.5,0c-1-0.1-2.2-0.1-3.5,0c-2.2,0.5-4.7,0-7.5-1.5c-0.4-0.1-0.7-0.8-0.7-1.9c0-1.1,0-2.4,0.2-3.8
		c0.2-1.4,0.3-2.3,0.2-2.6c0-0.3,0.1-0.8,0.1-1.5c0-0.6,0.1-1.1,0.1-1.4c0-0.3,0-0.8-0.1-1.4c0-0.1-0.1-0.9-0.4-2.4
		c-0.2-1.4-0.3-2.5-0.4-3.3c0-0.5,0-1.3,0-2.5s0-2.1,0-3.1c0-0.9,0.1-1.9,0.2-2.8s0.3-1.6,0.6-2.2
		C154.5,141.7,154.9,141.4,155.4,141.4z M159,149.5c0.1,1.8,0.2,4.4,0.1,7.9c0,3.5,0,5.7,0.2,6.6c0.1,0.5,0.5,0.8,1.2,0.8
		c0.2,0,0.7,0,1.5,0.1c0.8,0,1.4,0.1,1.9,0.1c0.5,0,1.1,0,1.7-0.1c0.6-0.1,1.1-0.2,1.5-0.5c0.4-0.3,0.5-0.6,0.6-1
		c0.2-3.2,0.3-7.2,0.1-11.9c0-0.5-0.2-0.9-0.5-1.3c-0.3-0.4-0.7-0.5-1.2-0.5h-0.1C163.3,149.7,160.9,149.6,159,149.5z M182.2,137
		c1.7-0.1,2.6-0.1,2.7-0.1c1,0,1.9,0.1,2.9,0.2c1,0.1,1.8,0.2,2.5,0.3c0.9,0.1,1.3,0.6,1.3,1.4c0,1.1,0.1,2.7,0.2,4.9
		c0.1,2.2,0.2,3.8,0.2,5c0.1,0.8,0.1,2.3,0.1,4.5c0,2.2,0,3.6,0,4.5c0,1.2,0,3.6,0,7.3c0,3.7,0,6.2,0,7.4c0,0,0,0.1,0,0.1
		c0,0.6-0.1,1.2-0.3,1.8c-0.4,1.1-1.1,1.6-2.1,1.6c-0.5,0-1,0-1.7,0c-0.6,0-1.2,0-1.6-0.1c-0.4,0-0.7-0.1-1.1-0.4
		c-0.4-0.2-0.6-0.4-0.8-0.7c-0.9-2.1-1.3-3.8-1.4-4.9c-0.1-2.6-0.2-6.9-0.2-13.1c0-6.1-0.1-10.3-0.2-12.5c0-0.7,0-1.5-0.1-2.2
		c-0.1-0.8-0.2-1.7-0.3-2.7C182.4,138.2,182.3,137.5,182.2,137z"/>
	<path d="M204.2,140c0-0.4,0.1-0.5,0.1-0.5c0.4-0.2,0.8-0.4,1-0.5c0.2-0.1,0.5-0.2,0.9-0.4c0.4-0.2,0.8-0.3,1-0.3
		c0.3,0,0.6-0.1,1-0.1s0.8,0.1,1.1,0.2c0.4,0.1,0.9,0.2,1.6,0.3c0.7,0.1,1.2,0.2,1.5,0.3c0.9,0.3,1.4,0.9,1.2,1.9
		c-0.1,1-0.2,2.2-0.5,3.6c-0.2,1.4-0.4,2.6-0.5,3.5c0,0-0.1,0.7-0.3,1.9c0.6,0.5,1.7,1.2,3.2,2.1c1.6,0.9,2.4,1.4,2.5,1.5
		c0.7,0.4,1.3,0.8,1.6,1.1c0.4,0.3,0.7,0.7,1,1.1c0.3,0.4,0.4,0.9,0.3,1.4c-0.1,0.5-0.4,1.1-0.8,1.7c-0.8,1.1-1.5,1.9-2.1,2.4
		c-0.6,0.5-1.1,0.7-1.7,0.7c-0.1,0-0.3-0.1-0.5-0.2s-0.5-0.4-0.7-0.6c-0.3-0.2-0.4-0.4-0.5-0.4c-0.9-0.6-1.8-1.4-2.8-2.5
		c-0.3-0.3-0.7-0.7-1.3-1.3s-1.1-1.1-1.5-1.4c-0.2-0.2-0.3-0.4-0.4-0.4c-0.1-0.1-0.2-0.1-0.3-0.1c-0.1,0-0.2,0-0.2,0
		c0,0-0.1,0.1-0.3,0.3c-0.1,0.2-0.3,0.3-0.4,0.4c-0.5,0.5-1.2,1.3-2.2,2.3c-1,1-1.7,1.8-2.2,2.3c-0.4,0.4-0.8,0.7-1.2,0.6
		c-0.4,0-0.7-0.2-1.1-0.7c-0.6-0.6-1.2-1.1-1.9-1.5c-0.4-0.2-0.8-0.5-1-0.7c-0.2-0.2-0.3-0.5-0.4-0.8c0-0.3,0.1-0.7,0.4-1.1
		c0.2-0.3,0.4-0.7,0.8-1.4c0.4-0.7,0.7-1.2,0.9-1.5c0.7-1,1.5-1.9,2.4-2.7c1.4-1.3,2.2-3,2.3-5.2c0.1-0.9,0-2-0.1-3.3
		C204.6,140.6,204.4,140,204.2,140z M215.6,168.6c6-0.4,9.4-0.6,10.2-0.6c0.8-0.1,1.7-0.1,2.7-0.2c1-0.1,1.9-0.2,2.7-0.3
		c0.7-0.1,1.3-0.1,1.7-0.1c0.6,0,1,0.7,1.3,2.2c0.1,0.3,0.1,0.9,0.1,1.8c0,1-0.3,2-0.8,3.1c-0.2,0.3-0.6,0.5-1.2,0.6
		c-0.6,0.1-2.7,0.2-6.2,0.4c-3.5,0.2-5.6,0.3-6.3,0.4c-0.1,0-0.3,0-0.5,0c-0.7,0-2.3,0-4.8,0.1c-2.4,0-4.2,0.1-5.3,0.2
		c-0.3,0-0.7,0-1.3,0.1c-0.6,0-1.1,0.1-1.4,0.1c-1,0-1.8-0.2-2.5-0.6c-0.2-0.1-0.4-0.3-0.6-0.6c-0.2-0.3-0.2-0.5-0.2-0.8
		c-0.1-1.3-0.2-3.1-0.3-5.5c-0.1-2.4-0.2-4-0.2-4.9c0-0.9,0-1.5,0-1.9l0-0.6c0.1,0,0.3-0.1,0.7-0.2c0.4-0.1,0.7-0.2,0.8-0.2
		c0.3-0.1,1-0.1,2.1-0.1c1.3,0,2.1,0.1,2.4,0.2c0.4,0.1,0.5,0.3,0.5,0.7c0,0.1,0.1,0.4,0.2,0.9c0.1,0.5,0.2,0.8,0.2,0.9
		c0,0.5,0.1,1.4,0.4,2.7c0,0.2,0.1,0.6,0.1,1.1c0.1,0.6,0.1,1.1,0.3,1.5L215.6,168.6z M230.4,156.7c-0.4-0.1-0.7-0.1-1.2-0.1
		c-0.2,0-0.6,0-1.2,0c-0.5,0-0.9,0-1.2,0c-0.5,0-0.8-0.1-1.1-0.1c-0.2-0.1-0.4-0.1-0.5-0.2c-0.1-0.1-0.3-0.3-0.4-0.4
		s-0.1-0.3-0.2-0.5c-0.1-0.1-0.1-0.4-0.2-0.8c-0.1-0.3-0.1-0.5-0.1-0.8c-0.1-0.4-0.1-0.6-0.1-0.8c0-0.3,0-0.6,0-0.8
		c0.1-0.2,0.2-0.4,0.4-0.6c0.2-0.1,0.4-0.2,0.7-0.3s0.7-0.1,1.2-0.2c0.3,0,0.7-0.1,1.2-0.1c0.5,0,1-0.1,1.2-0.1c0.3,0,0.5,0,0.6,0
		c0.3,0,0.5-0.1,0.6-0.1c0.1,0,0.1-0.1,0.2-0.1c0-0.1,0.1-0.1,0.1-0.2c0-0.1,0-0.1,0-0.2c0-0.1,0-0.4,0-1.1c0-0.1,0-0.4,0-0.7
		s0-0.5,0-0.7c0-0.1,0-0.3,0-0.6s0-0.5,0-0.6c-0.1,0-0.1,0-0.2,0c-0.1,0-0.1,0-0.2,0c-0.1,0-0.1,0-0.2,0c-0.5,0.1-0.9,0.1-1.2,0.1
		c-1.4,0.1-2.2,0.1-2.4,0.2c-0.1,0-0.2,0-0.3,0c-0.1,0-0.2,0-0.3,0c-0.3,0-0.5,0-0.6,0c-0.1,0-0.2,0-0.3,0c-0.1-0.1-0.2-0.1-0.2-0.2
		c-0.1-0.1-0.1-0.1-0.2-0.2c-0.1-0.3-0.3-0.8-0.4-1.4c-0.1-0.5-0.1-1-0.1-1.4c0-0.2,0-0.5,0.1-0.7c0.1-0.3,0.1-0.5,0.2-0.7
		c0-0.1,0.1-0.2,0.1-0.2c0.1-0.1,0.1-0.1,0.2-0.2c0.1,0,0.1-0.1,0.2-0.1c0.2-0.1,0.6-0.1,1.4-0.2c0.3,0,0.7,0,1.3,0c0.6,0,1,0,1.2,0
		c0.5,0,0.9-0.1,1.4-0.1c0-0.9,0-1.4,0-1.4c0-0.4,0-0.7,0-0.9c0-0.3,0.1-0.6,0.1-0.9c0.1-0.3,0.1-0.6,0.3-0.9
		c0.1-0.2,0.2-0.5,0.4-0.8c0.1-0.3,0.3-0.6,0.4-0.8c0.1-0.1,0.2-0.2,0.3-0.3c0.1-0.1,0.2-0.1,0.4-0.2c0.2-0.1,0.5-0.1,0.8,0
		c0.2,0.1,0.5,0.1,0.8,0.1c0.1,0,0.2,0,0.3,0c0.1,0,0.1,0,0.2,0c0.1,0,0.1,0,0.1,0.1c0.1,0,0.1,0,0.3,0c0.4,0.1,0.7,0.2,0.8,0.3
		c0.2,0.1,0.4,0.3,0.5,0.6c0.1,0.2,0.2,0.5,0.2,0.8c0,0.2,0,0.5,0,1c0,0.5,0,0.9,0.1,1.1c0,0.4,0.1,1.3,0.1,2.7
		c0,0.7,0.1,1.4,0.1,2.1c0,0.4,0.1,0.8,0.1,1.1c0.1,0.6,0.1,1,0.1,1.1c0,0.4,0,0.8,0,1.1c0,0.4,0,1-0.1,1.7
		c-0.1,0.6-0.1,1.1-0.2,1.5c-0.1,0.7-0.1,1.2-0.2,1.4c0,0.1,0,0.4,0,0.6c0,0.3,0,0.4-0.1,0.5c0,0.1,0,0.2,0,0.4c0,0.2,0,0.4,0,0.5
		c0,0.4-0.1,0.7-0.1,0.9c-0.1,0.5-0.1,0.7-0.1,0.8c0,0.1,0,0.4,0,0.6c0,0.3,0,0.5,0,0.6c0,0.2,0,0.4-0.1,0.7
		c-0.1,0.4-0.2,0.6-0.2,0.7c0,0.1,0,0.4,0,0.7s0,0.5,0,0.6c0,0.2-0.1,0.5-0.2,0.7c-0.1,0.2-0.2,0.3-0.4,0.5c-0.1,0-0.1,0.1-0.2,0.1
		c-0.1,0-0.2,0.1-0.3,0.2c-0.1,0.1-0.2,0.1-0.2,0.1c-0.4,0.2-0.7,0.4-0.8,0.4c-0.1,0-0.3,0.1-0.6,0.1l-0.7,0.1
		c-0.2,0.1-0.5,0.1-0.7,0.1c-0.2,0-0.3,0-0.5,0c-0.1-0.1-0.3-0.1-0.4-0.3c-0.1-0.1-0.1-0.3-0.1-0.5c0-0.1-0.1-0.4-0.1-0.6
		c0-0.4,0-1,0-1.8c0-0.8,0-1.4,0-1.8C230.4,157.2,230.4,157,230.4,156.7z"/>
	<path d="M250.4,166.3c-0.1,0-0.3,0-0.7,0c-0.4,0-0.6,0-0.8,0s-0.4,0-0.6-0.1s-0.5-0.1-0.6-0.2c-0.1-0.1-0.2-0.3-0.4-0.5
		c-0.1-0.2-0.2-0.5-0.2-0.8c0-0.2-0.1-0.5-0.2-1c-0.1-0.5-0.1-0.9-0.1-1.2c0-0.5,0.1-0.9,0.2-1.4c0-0.2,0.2-0.4,0.4-0.6
		c0.3-0.2,0.5-0.3,0.8-0.3c3.9,0,7.9,0,11.9,0c-0.1-0.1-0.3-0.3-0.6-0.5s-0.4-0.3-0.4-0.4c-0.9-0.6-1.8-1.5-2.8-2.5
		c-0.3-0.3-0.7-0.7-1.3-1.3c-0.6-0.6-1.1-1-1.5-1.5c-0.2-0.2-0.3-0.4-0.4-0.4c-0.1-0.1-0.2-0.1-0.3-0.1s-0.2,0-0.2,0
		s-0.1,0.1-0.3,0.3c-0.1,0.2-0.3,0.3-0.4,0.4c-0.5,0.5-1.2,1.3-2.2,2.3c-1,1-1.7,1.8-2.2,2.3c-0.4,0.4-0.8,0.7-1.2,0.6
		c-0.4,0-0.7-0.2-1.1-0.7c-0.6-0.6-1.2-1.1-1.9-1.5c-0.4-0.2-0.8-0.5-1-0.7c-0.2-0.2-0.3-0.5-0.4-0.8c0-0.4,0.1-0.7,0.4-1.2
		c0.2-0.3,0.4-0.7,0.8-1.4c0.4-0.7,0.7-1.2,0.9-1.5c0.7-1,1.5-1.9,2.4-2.7c1.4-1.3,2.2-3.1,2.3-5.3c0.1-0.9,0-2-0.1-3.3
		s-0.3-2-0.4-1.9c0-0.4,0.1-0.5,0.1-0.5c0.4-0.2,0.8-0.4,1-0.5c0.2-0.1,0.5-0.2,0.9-0.4s0.8-0.3,1-0.3c0.3,0,0.6-0.1,1-0.1
		s0.8,0,1.1,0.1c0.4,0.1,0.9,0.2,1.6,0.4c0.7,0.1,1.2,0.3,1.5,0.4c0.9,0.2,1.4,0.9,1.2,1.9c-0.1,1-0.2,2.3-0.5,3.7
		c-0.2,1.4-0.4,2.6-0.5,3.5c0,0.1-0.1,0.7-0.3,1.9c0.6,0.5,1.7,1.2,3.2,2.1c1.6,0.9,2.4,1.4,2.5,1.5c0.7,0.4,1.3,0.8,1.6,1.1
		s0.7,0.7,1,1.1c0.3,0.4,0.4,0.9,0.3,1.4c-0.1,0.5-0.4,1.1-0.8,1.7c-1,1.4-1.9,2.3-2.6,2.7c5.4,0.1,9.2,0.2,11.3,0.4
		c1,0.1,1.7,0.2,2.3,0.4c0.7,0.2,1.1,0.6,1.2,1c0.1,0.6,0.2,1.2,0.2,1.9c0,0.7-0.1,1.6-0.3,2.7c-0.3,1.7-1.2,2.9-2.7,3.7
		c-0.8,0.4-2.2,0.7-4.3,0.9c-0.7,0.1-1.8,0.1-3.2,0.1c-1.4,0-2.4,0.1-3,0.1c-0.1,0-1.7,0-4.7,0.1c-3.1,0-4.8,0.1-5.1,0.2l0,1.2
		c0.5,0,2.5,0,6-0.1c3.5-0.1,5.5-0.1,6-0.1c1.2,0,2.3,0,3.2,0c0.6,0,1.6,0,2.9-0.1c1.3-0.1,2.2-0.1,2.8-0.2c0,0,0.1,0,0.1,0
		c0.8,0,1.2,0.3,1.2,0.9c0,0.1,0,0.2,0,0.2c-0.2,1.4-0.5,2.4-0.7,3.1c-0.2,0.7-0.6,1.2-1,1.5c-0.5,0.3-1.3,0.4-2.5,0.4
		c-0.2,0-0.4,0-0.5,0c-1.2,0-2.8-0.1-4.8-0.2c-2.1-0.1-3.5-0.2-4.4-0.3c-1.3-0.1-2.5-0.1-3.5,0c-1,0.1-2.2,0.1-3.4,0
		c-1.3-0.1-2.4-0.2-3.3-0.4c-1.3-0.3-2.3-0.7-2.8-1.4c-0.5-0.7-0.9-1.6-1-2.8c0-0.2,0-0.7,0-1.5c0-0.1,0-0.4,0-1
		c0-0.9,0.3-1.6,0.7-1.9c0.4-0.4,1.2-0.5,2.3-0.6c4.2-0.1,9.9-0.3,16.9-0.6c0.9,0,1.3-0.3,1.3-0.9v-0.2c0-0.2,0-0.4,0-0.5v-0.2
		c0-0.1-0.2-0.1-0.6-0.2c-0.5,0-1.3,0-2.4,0c-1.1,0-2.3,0.1-3.6,0.2c-1.3,0.1-3.1,0.2-5.4,0.3C254.8,166.1,252.6,166.2,250.4,166.3z
		 M280,136.6c0.1,2.5,0.2,3.8,0.3,3.9c0.3,2.2,0.2,5.4-0.2,9.6c-0.1,0.7-0.2,1.7-0.3,3s-0.3,2.1-0.3,2.6c-0.1,0.7-0.5,1.1-1.2,1.1
		c-0.3,0-1.3,0-3,0s-2.8,0-3.3,0c-0.5,0-0.8-0.4-1-1.2c-0.1-0.2-0.1-0.4-0.1-0.7c0-0.2-0.1-0.4-0.1-0.6c0-0.2,0-0.4,0-0.7
		c0-0.3,0-0.5,0-0.6s0-0.4,0-0.7c0-0.3,0-0.5,0-0.6c0-0.1,0-0.3,0-0.7c0-0.4,0.1-0.6,0.1-0.6c0-0.1,0-0.3,0.1-0.7s0-0.6,0-0.6
		c0.1-0.9,0.2-2.9,0.2-5.8c0-0.3,0-1.1,0-2.3c0-1.2,0-2,0-2.4c0-0.5,0.3-0.8,0.8-1.1c1.2-0.5,3.7-0.8,7.6-0.8
		C279.7,136.5,279.8,136.5,280,136.6z"/>
	<path d="M288.2,141.7c1.3,0.3,1.9,0.5,2,0.5c1.7,0.5,3.7,0.8,5.9,0.8c0.3,0,1.3,0.1,3,0.4c1.6,0.3,2.7,0.5,3.3,0.6
		c1,0.2,2,0.5,3.1,0.8c0.2,0.1,0.4,0.4,0.5,0.8c0.1,0.5,0.1,0.9,0,1.4c0,0.2-0.3,1.4-0.7,3.7l-3.4,0.7c-0.4,1.9-0.4,5.2,0,9.9
		c0.1,0,0.3,0.1,0.5,0.1c0.2,0.1,0.6,0.1,1.1,0.2c0.5,0.1,1,0.1,1.5,0.1c0.6,0,1.1,0.2,1.7,0.7c0.1,0.1,0.1,0.6,0,1.7
		c-0.1,0.5-0.1,0.9-0.3,1.3c-0.1,0.4-0.2,0.9-0.3,1.3c-0.1,0.9-0.5,1.5-1.3,1.9c-1.3,0.6-2.4,0.9-3.4,0.8c-0.6,0-1.2-0.1-1.9-0.1
		c-0.7,0-1.4-0.1-2.2-0.1s-1.5,0-1.9-0.1c-2.3-0.1-3.9-0.1-4.6-0.2c-0.9-0.1-1.9-0.2-3-0.4c-0.7-0.1-1.2-0.7-1.5-1.9
		c-0.2-0.9-0.3-1.5-0.3-1.7c0-0.2,0.1-0.8,0.2-1.7c0-0.2,0.1-0.4,0.3-0.6s0.4-0.4,0.5-0.4c0.2-0.1,1.2-0.4,2.9-0.9v-11.3
		c-0.1,0-0.4-0.1-0.8-0.3c-0.4-0.1-0.8-0.3-1-0.4c-0.7-0.2-0.9-0.9-0.8-1.9c0.1-1.2,0.3-2.8,0.6-4.6
		C287.9,142.8,288,142.4,288.2,141.7z M295,150.2c-0.6,2.4-0.8,5.5-0.8,9.3c0,0.3,0.1,0.5,0.3,0.8c0.1,0.3,0.3,0.5,0.6,0.6
		c0.2,0.1,0.4,0.2,0.6,0.3c0.2,0,0.4,0.1,0.7,0.1s0.5,0,0.6,0c0.3,0.1,0.5,0,0.7-0.2c0.1-0.2,0.3-0.4,0.3-0.8c0-0.2,0.1-0.8,0.1-1.8
		s0.1-1.5,0.1-1.7c0.2-3.1,0.4-4.8,0.4-5c0-0.4,0-0.6-0.1-0.8c-0.1-0.1-0.3-0.2-0.5-0.3C297.7,150.7,296.7,150.6,295,150.2z
		 M318.7,159.8c-0.3,0.1-0.5,0.1-0.7,0.2c-0.2,0.1-0.4,0.1-0.7,0.1c-0.4,0.1-0.8,0.2-1,0.4c-0.2,0.2-0.3,0.6-0.3,1.1
		c0,0.6,0,2.2,0,4.8c0,2.6,0,4.2,0,4.8c0,1.2-0.4,2-1.4,2.3c-0.2,0.1-0.5,0.2-0.9,0.4c-0.4,0.2-0.7,0.3-0.9,0.4
		c-1,0.3-1.7,0-2.2-1.1c-0.8-1.7-1.3-3.9-1.5-6.7c-0.1-0.9-0.1-2.2-0.1-4c0-1.8,0-3.1-0.1-4c-0.6-5.8-0.5-11.2,0.1-16
		c0-0.1,0-0.3,0-0.5c0-0.2,0.1-0.4,0.1-0.5c0-0.1,0-0.2,0.1-0.4c0-0.2,0.1-0.3,0.1-0.4c0.1-0.1,0.1-0.2,0.2-0.3
		c0.1-0.1,0.2-0.2,0.3-0.3c0.1-0.1,0.3-0.2,0.5-0.2c1-0.4,2.2-0.7,3.8-0.9c0.9-0.1,1.4,0.3,1.6,1.5c0.1,0.4,0.1,1.7,0.2,3.6
		c0,0.3,0.1,1.3,0.1,3.2c0,1.9,0,3.1,0.1,3.5c0.1,0.6,0.3,1.1,0.6,1.3c0.4,0.3,0.8,0.4,1.4,0.3c0.2,0,0.3-0.1,0.4-0.1
		c0-0.1,0.2-0.1,0.4,0c0.4,0,0.7-0.1,0.9-0.2c0.2-0.2,0.3-0.5,0.2-1c0-5.7,0-8.9,0-9.4c0-0.8,0.3-1.3,0.9-1.3
		c1.9-0.2,3.3-0.3,4.1-0.3c0.2,0,0.4,0,0.5,0.1c0.1,0.1,0.3,0.2,0.3,0.4c0.1,0.2,0.1,0.3,0.1,0.4s0,0.3,0,0.6c0,0.3,0,0.5,0,0.5
		s0.1,2.2,0.3,6.5c0,0.3,0,1.1,0.1,2.6c0.1,1.5,0.1,2.6,0.1,3.4c0,1.4,0,6,0,13.9c0,1-0.2,1.7-0.5,2.3c-0.4,0.5-0.9,1-1.7,1.3
		c-0.4,0.1-1,0.3-1.9,0.5c-1.1,0.3-1.8-0.2-1.9-1.5c0-0.2,0-0.4,0-0.4c0.2-1.4,0.1-3.3-0.2-5.8C319.8,162.6,319.3,160.9,318.7,159.8
		z"/>
</g>
</svg>
