<?xml version="1.0" encoding="utf-8"?>
<!-- Generator: Adobe Illustrator 25.2.1, SVG Export Plug-In . SVG Version: 6.00 Build 0)  -->
<svg version="1.1" id="Layer_1" xmlns="http://www.w3.org/2000/svg" xmlns:xlink="http://www.w3.org/1999/xlink" x="0px" y="0px"
	 viewBox="0 0 480 360" style="enable-background:new 0 0 480 360;" xml:space="preserve">
<style type="text/css">
	.st0{fill:#281446;}
	.st1{fill:#F0E6D2;}
	.st2{fill:#DCD2B4;}
	.st3{fill:#460A00;}
	.st4{fill:#463C00;}
	.st5{fill:#322800;}
	.st6{fill:#824600;}
	.st7{fill:#642800;}
	.st8{fill:#82783C;}
	.st9{fill:#645A1E;}
	.st10{fill:#A0640A;}
	.st11{fill:#FFFFFF;}
</style>
<g id="woods-_x5B_fantasy_x2C_spooky_x2C_halloween_x2C_outdoors_x2C_haunted_x2C_forest_x2C_alex-eben-meyer_x5D_">
	<g id="ID0.3465839927084744">
		<g id="haunted-forest">
			<path id="Rectangle-path" d="M-1.2-1h482.3v360.6H-1.2V-1"/>
			<g id="Group-5">
				<path id="Shape" class="st0" d="M421.9,94.6c-6-11.6-26.3-10.1-37.3-11.3c-3.8-2.3-6.9-4.7-8.6-8.9c-1.6-3.9-1.9-8.2-5-11.4
					c-4.3-4.3-11.8-4.7-17.4-5.2c-16.4-1.5-32.9-1.8-49.3-2.1c-32.1-0.6-64.6-1.2-96.6,0c-11.3,0.4-14.4,7.5-19.5,16.3
					c-5.6,9.4-14.1,12.6-24.5,14.1c-12.5,1.8-48.8,2.4-38.7,24.8c8.6,19.2,34.5,22.5,52.9,22.4c10,0,21.9-2.1,31.1,2.8
					c8,4.2,10.7,14.2,19.2,17.7c5.1,2.1,10.8,1.8,16.2,1.8c7.2,0.1,14.4-0.1,21.5,0.1c14.1,0.2,28.2,1,42.3,1.3
					c11.5,0.3,25.2,2,36.2-2.2c5.8-2.2,9-6.3,12.5-11.3c4-5.8,7.6-6.3,13.6-9l12.4,0.1c0.2,0.3,0.5,0.6,0.8,0.9
					c0.1-0.3,0.2-0.6,0.3-0.9c11.7,0.1,31.2,4.3,39.1-6.9C429.5,118.3,426.9,104.2,421.9,94.6z"/>
				<path id="Shape_1_" class="st0" d="M481.2,15.3l-16,20.5c-11.5,0-18.7-4.5-24.7-7.5c-8.7-4.5-15.1-8.3-32-8.3
					c-10.3,0-42.5,9-59.5,8.5c-17-0.6-35.1-8.5-53.8-8.5c-28.3,0-25.4,13.5-53.7,13.5c-3.4,0-6.5-0.2-9.4-0.4
					c-8.8-0.7-17.3-3-25.2-7c-20.4-10-41.2-4.1-46.7-1.4c-10.2,5-16.9,12.2-35.4,12.2c-12.2,0-18.5-5-24.6-8.5
					C92.1,23.6,84.8,20,68.6,20C40.3,20,27.1,35.9-1.2,35.9V-1h482.3L481.2,15.3L481.2,15.3z"/>
				<path id="Shape_2_" class="st0" d="M163.3,1.5c11.8,45.3,80.3,37.2,116.6,40.5c21.8,2,43.9,4.8,65.8,3.1
					c79.9-6.2,134.2-21.9,135.5-40.7c0.2-2.4-26.4-2.8-34.1-2.8L163.3,1.5L163.3,1.5z"/>
				<path id="Shape_3_" class="st0" d="M34.2,69.2c0.4-4.7,5.8-5.7,9.6-6.2c5.6-0.9,11.3-1.2,16.9-1.1c10.6,0.4,21.3-0.1,31.8,0.7
					c5.7,3.6,0.8,8.3-4,9.5c-6.1,1.5-12.6,1.2-18.8,1.5c-6.6,0.3-13.2,0.2-19.8,0.2C44.3,73.7,37.1,74.7,34.2,69.2z"/>
				<path id="Shape_4_" class="st0" d="M151.9,37.5c0.4-4.7,5.8-5.7,9.6-6.2c5.6-0.9,11.3-1.2,16.9-1.1c10.6,0.4,21.3-0.1,31.8,0.7
					c5.7,3.6,0.8,8.3-4,9.5c-6.1,1.5-12.6,1.2-18.8,1.5c-6.6,0.3-13.2,0.2-19.8,0.2C162.1,42,154.9,42.9,151.9,37.5z"/>
				<path id="Shape_5_" class="st0" d="M32.5,102.1c0.9-9.9,12.4-12,20.5-13.2c11.8-1.7,24-2.7,35.9-2.2c22.5,0.9,45.1-0.2,67.5,1.5
					c12,7.6,1.7,17.6-8.5,20.1c-13,3.3-26.7,2.5-39.9,3.1c-14,0.6-28,0.3-42.1,0.4C54.1,111.8,38.7,113.7,32.5,102.1z"/>
				<path id="Shape_6_" class="st0" d="M410.9,66.9c0.4-7.2,5.5-8.7,9-9.6c5.2-1.3,2.5-0.8,12.4-0.7c7.1,0.1,9.2,14.1,3.6,15.5
					c-5.8,1.5-4.3,1.5-10.5,1.6C420.3,73.8,413.6,75.3,410.9,66.9z"/>
				<path id="Shape_7_" class="st0" d="M388.8,152.4c0.6-7.2,7.6-8.7,12.6-9.5c7.2-1.2,3.5-0.8,17.3-0.6c9.9,0.1,13,14.1,5.2,15.5
					c-8.1,1.5-6,1.5-14.7,1.5C402,159.3,392.6,160.7,388.8,152.4z"/>
				<path id="Shape_51_" class="st0" d="M68.5,140.1c-1-2.2-1-2.2-1-3.5c4.1-4.3,9.7-4.4,15.3-4.4c3.5,0.1,11.6,0.2,10.8,5.1
					c-0.7,4.2-5.3,4.8-8.9,5.3C79.2,143.6,73.5,142.7,68.5,140.1z"/>
			</g>
			<g id="Moon">
				<path id="Shape_8_" class="st1" d="M36.3-1c0.6,6.9,1.8,11.1,6.1,17.1c13,18,45.8,23.6,64.6,0.8c6.1-7.4,6.9-9.4,8.6-17.9H36.3z
					"/>
				<path id="Oval" class="st2" d="M53.5,1.5c2.3,0,4.3,0.9,5.7,2.4c1.5,1.5,2.4,3.5,2.4,5.7c0,2.2-0.9,4.3-2.4,5.7
					s-3.5,2.4-5.7,2.4c-2.2,0-4.3-0.9-5.7-2.4c-1.5-1.5-2.4-3.5-2.4-5.7c0-2.2,0.9-4.2,2.4-5.7C49.2,2.4,51.3,1.5,53.5,1.5z"/>
				<path id="Oval_1_" class="st2" d="M69.9,15.8c0.8,0,1.6,0.4,2.1,0.9c0.6,0.6,0.9,1.3,0.9,2.1c0,0.8-0.4,1.6-0.9,2.1
					c-0.6,0.6-1.3,0.9-2.1,0.9c-0.8,0-1.6-0.4-2.1-0.9c-0.6-0.6-0.9-1.3-0.9-2.1c0-0.8,0.4-1.6,0.9-2.1
					C68.3,16.2,69.1,15.8,69.9,15.8z"/>
				<path id="Oval_2_" class="st2" d="M131.4,12c1.4,0,2.6,0.6,3.5,1.5c0.9,0.9,1.5,2.2,1.5,3.5c0,1.4-0.6,2.6-1.5,3.5
					c-0.9,0.9-2.2,1.5-3.5,1.5c-1.4,0-2.6-0.6-3.5-1.5c-0.9-0.9-1.5-2.2-1.5-3.5c0-1.4,0.6-2.6,1.5-3.5
					C128.7,12.5,129.9,12,131.4,12z"/>
			</g>
			<path id="Shape_9_" class="st3" d="M249.3-1c-0.8,47.4-0.9,186.2,0.1,187.1c1.1,0,2.1-0.2,3-0.6c0.6-7.9,1.1-137.1,1-186.5H249.3
				z"/>
			<path id="Shape_10_" class="st3" d="M151.5-1c-1.3,47.4-1.6,172.6,0.1,173.5c1.7,0,3.4-0.2,5.1-0.6c1-7.9,1.9-123.5,1.7-173
				H151.5z"/>
			<g id="Grass-BG">
				<path id="Shape_11_" class="st4" d="M481.2,158.7v-20.9c-11.5,0-34.8,4.5-40.7,7.5c-8.7,4.5-15.1,8.3-32,8.3
					c-10.3,0-42.5-9-59.5-8.5c-17,0.6-35.1,8.5-53.8,8.5c-28.3,0-25.4-13.5-53.7-13.5c-3.4,0-6.5,0.2-9.4,0.4
					c-8.8,0.7-17.3,3-25.2,7c-20.4,10-41.2,4.1-46.7,1.4c-10.2-5-16.9-12.2-35.4-12.2c-12.2,0-18.5,5-24.6,8.5
					c-8.1,4.7-15.4,8.3-31.6,8.3c-28.3,0-41.5-15.8-69.8-15.8v45.3l482.3,1.3L481.2,158.7L481.2,158.7z"/>
				<path id="Shape_12_" class="st5" d="M233,182.5c0.1-1.6-0.2-3.2-0.9-4.7c-0.2-0.5-0.6-1-0.8-1.5c-2.8-6.9-8.2-9.4-14.4-9.9
					c-3.5-0.3-7,0.5-10.3,1.9c-6.7,2.6-10.5,7.6-12.3,14.3L233,182.5L233,182.5z"/>
				<path id="Shape_13_" class="st5" d="M167.8,183c0.2-1.6-0.5-3.2-2.1-4.7c-0.6-0.5-1.4-1-1.9-1.5c-7-6.9-20.1-9.4-35.4-9.9
					c-8.5-0.2-17.1,0.4-25.5,1.9c-16.4,2.6-25.9,7.6-30.3,14.3L167.8,183L167.8,183z"/>
			</g>
			<g id="Tree-3">
				<path id="Shape_14_" class="st3" d="M400.6-1c-0.8-0.3-1.6,0-2.3,0c-0.8,3.2-1.2,7.8-1.4,11.1c-0.2,3.9-2,7.7-2.1,11.6
					c-0.2,7.6-1.1,15.2-2.7,22.7c-1.5,6.6-3.7,13-6.5,19.1l1,8.6c0.4-0.7,0.8-1.5,1.2-2.2c3.8-6.8,6-14.9,7-22.6
					c1-7.7,1.7-15.3,2.6-22.9C398.2,17,402,6.4,400.6-1z"/>
				<path id="Shape_15_" class="st6" d="M354,32c0.8-0.3,1.5-0.5,2.3-0.6c0.9,3.2,0.5,6.6,0.9,9.8c0.4,3.8,0.5,7.7,0.7,11.6
					c0.5,7.6,1.8,15.2,3.7,22.6c1.8,6.7,4.3,13.1,7.5,19.2c1.7,3.3,3.8,6.4,5.7,9.7c1.9,3.2,3.1,6.6,5.1,9.7c0,1.2,0.5,2.3,0,3.7
					c-2.2-2.5-4.6-4.9-6.7-7.4c-2.4-2.9-4.1-6.3-6-9.5c-4.1-6.6-6.6-14.6-8-22.3c-1.4-7.7-2.4-15.2-3.6-22.8
					C354.3,48.4,353,39.5,354,32z"/>
				<path id="Shape_16_" class="st7" d="M379.5,179.7c1.2,0.2,8.9-0.9,10.2-1c0.8-9.8,0.5-19.8,0.5-29.7c0.1-9.7,0.4-19.4,0.3-29.2
					c-0.3-25.7-1.4-51.2-1-76.9c0.2-10.2,0.4-20.3,0.6-30.5c0.1-3.2,0.2-6.4,0.2-9.5c0-1.2,0-2.6-0.1-3.8h-8.6L379.5,179.7z"/>
				<path id="Shape_17_" class="st6" d="M379.2-1c-1.3,47.4-1.6,178.8,0.1,179.8c1.7,0,3.5-0.2,5.1-0.6c1-7.9,1.8-129.7,1.7-179.2
					H379.2z"/>
			</g>
			<g id="Tree-2">
				<path id="Shape_18_" class="st3" d="M171.4,46.6l1.2,3.4c0.9-0.6,1.6-1.4,2.2-2.2c1.9-2.6,3.6-5.3,5.4-7.9
					c1.2-1.8,2.4-3.5,3.6-5.2c0.2-0.3,0.4-0.6,0.6-0.9c2.4-3.7,4.7-7.4,7-11.2c1.6-2.7,3-5.5,4.5-8.3c0.1-0.1,0-0.2,0-0.5
					c-0.3-0.1-0.6-0.1-0.9-0.1c-0.7,0.2-1.4,0.4-2.2,0.7c-1.3,1.4-2.5,2.9-3.5,4.6c-1.5,2.2-3.1,4.4-4.5,6.6c-0.7,1-1.2,2-1.8,2.9
					c-1.6,2.5-3,5.1-4.7,7.5c-1.6,2.2-2.8,4.5-4.2,6.7L171.4,46.6z"/>
				<path id="Shape_19_" class="st3" d="M198.5,98.4c3,0.6,5.9,1.3,8.8,1.9c0.5,0.1,0.9,0.1,1.4,0.1c-0.3-0.8-0.5-1.5-0.8-2.2
					c-0.7-0.2-1.2-0.4-1.8-0.5c-1.3-0.3-2.6-0.5-3.9-0.8l-3.9-0.7C198.4,96.9,198.5,97.7,198.5,98.4z"/>
				<path id="Shape_20_" class="st3" d="M178.8,93.1c-0.3,0.3-0.5,0.6-0.7,1c-0.8,1.9-1.5,3.9-2.3,5.7c-0.7,1.5-1.2,3.1-1.7,4.7
					c-0.3,0.9-0.6,1.8-0.9,2.6c0.7,0,1.5,0.1,2.2,0.1c0.1-0.4,0.3-0.7,0.4-1.1c0.8-2.5,1.5-5,2.3-7.5c0.3-0.9,0.6-1.9,0.8-2.8
					C179.2,94.9,179.1,94,178.8,93.1z"/>
				<path id="Shape_21_" class="st7" d="M206.8,79.4c-1.5-0.7-3.1-0.9-4.7-0.6c-0.1,0.7-0.3,1.3-0.4,1.9c-0.3,2.9-1.1,5.7-2.4,8.3
					c-1.5,3.1-3.4,5.8-6.1,7.9c-0.2,0.2-0.4,0.3-0.5,0.5c-2.7,2.6-5.9,4.6-9.4,5.8c-1.4,0.5-2.9,0.9-4.3,1c-1.8,0.1-3.5,0.5-5.1,0.7
					c-0.8,0.4-1.6,0.7-2.4,0.7c-2.2,0.4-4.1,0.8-6,1.1c-0.6,0.1-1.1,0.3-1.7,0.5c-1.1,0.4-2.2,0.8-3.2,1.3
					c-3.6,1.7-7.2,3.5-10.4,5.9c-2.1,1.6-11.2,12.3-11.2,13.2l1.3,16.2c0.3-0.4,6.3-10.8,7.3-12.4c2.5-3.9,5.5-7.4,9-10.3
					c1.4-1.2,2.8-2.2,4.2-3.3c2.7-2.1,5.8-3.8,9-4.8c2.7-0.9,5.4-1.4,8.2-1.6c2.3-0.2,4.6-0.4,6.8-0.7c3.8-0.5,7.2-2.1,10.4-4.1
					c3.3-2.1,6-5.1,7.7-8.5c2-3.7,3.6-7.6,3.6-11.9c0-0.4,0.1-0.8,0.2-1.2c0.1-1.4,0.2-2.8,0.2-4.1C207.1,80.3,207,79.8,206.8,79.4z
					"/>
				<path id="Shape_22_" class="st7" d="M172.6-1c3.3-0.3,5.4-0.4,7.6,0c0.6,4.6-1.7,28-2.9,36.8c-1.6,12.2-5.7,27.6-9.4,32.9
					c-6.1,8.5-17.4,15.9-27.8,17.4c-0.5-2.5,0.4-4.7,0.2-7.1c2.1-0.9,4.3-1,6.4-2c2.1-1,3.7-2.3,5.5-3.5c3.4-2.2,6.3-5.1,8.4-8.5
					c2.6-4.2,6.5-14.1,8.2-22.9C170.7,32.8,172.5,4.2,172.6-1z"/>
				<path id="Shape_23_" class="st7" d="M71.6,99.6c-0.3-0.7-0.1-1.5,0.5-2c1.4,0.4,2.8,0.7,4.2,1.2c1.7,0.5,3.4,1.2,5,1.7
					c0.9,0.3,1.9,0.4,2.8,0.7c0.9,0.3,1.9,0.5,2.8,0.8c0.9,0.3,1.5,1.2,1.4,2.1c-0.6,0.4-1.2,0.2-1.7,0c-1.5-0.4-3-0.7-4.5-1
					c-0.6-0.1-1.1-0.3-1.7-0.5c-1.4-0.7-2.8-1.3-4.3-1.6C74.7,100.5,73.3,100,71.6,99.6z"/>
				<path id="Shape_24_" class="st7" d="M98.7,61.1c0.1,1.3,0.2,2.4,0.3,3.6c-1-0.2-2-0.7-2.8-1.2c-2.7-1.7-5.4-3.5-8-5.2l-5.3-3.5
					c-0.3-0.2-0.6-0.4-0.9-0.6c-3.6-2.6-7.2-5-10.8-7.7c-2.5-1.9-4.9-4-7.3-5.9c-0.1-0.1-0.1-0.2-0.2-0.5c0.3-0.2,0.5-0.3,0.8-0.4
					c0.8-0.1,1.5-0.2,2.3-0.3c1.8,0.8,3.4,1.8,5,2.9c2.3,1.5,4.5,2.9,6.7,4.4c1,0.7,1.9,1.3,2.8,2c2.4,1.7,4.8,3.6,7.2,5.2
					c2.2,1.4,4.2,3.1,6.4,4.6L98.7,61.1z"/>
				<path id="Shape_25_" class="st7" d="M104.8,133.6c1-0.3,2,0.3,2.9,0.7c3.2,1.3,6.3,2.9,9.1,4.9c2.7,2,5.6,3.8,8.6,5.4
					c0.4,0.2,0.7,0.5,1,0.7c0.1,0.8-0.6,0.7-1.1,0.5c-1.5-0.5-2.9-1-4.3-1.7c-4.8-2.5-9.3-5.4-14-8.1
					C106.2,135.3,105.2,134.7,104.8,133.6z"/>
				<path id="Shape_26_" class="st7" d="M142.3,18.8c-0.1-1.8-0.1-3.6-0.2-5.4C142,9.5,142.8,2.8,141.6-1c-3.7,0-5.7-0.1-8.1,0
					c-0.3,13.1-0.2,27.3,0.1,40.3c0.5,28.3-2,128.5-2,150.7c1.5,0,9.2,0.7,10.7,0.8C143.2,184.7,142.4,25.2,142.3,18.8z"/>
				<path id="Shape_27_" class="st6" d="M123.9-1c0,0.8-0.1,14.4-0.1,15.2c0,1.7,0,3.3,0.1,5c0.1,6.7,0.2,165.8,0.9,170.7
					c3.9,0.9,12.3,0.2,12.3,0.2S138.4,47.2,137.9-1L123.9-1L123.9-1z"/>
				<path id="Shape_28_" class="st6" d="M126.4,103.5c-4.3-2.6-8.5-5.1-11.3-9.4c-3.6-5.3-6.1-11.2-7.6-17.4
					c-1.6-6.7-3.7-13.3-4.2-20.2c-2.2-30.4,1.4-52.3,0.6-57.6H97c-0.4,5.2-1.9,17.1-2.1,31.6c-0.5,24.8,3.3,39.5,4.5,43.6
					c1.4,4.6,3.1,9,5.3,13.3c4.1,7.7,9.9,15.2,21.3,23.5C126.1,110.1,126.7,104.8,126.4,103.5z"/>
				<path id="Shape_29_" class="st6" d="M126.4,126.2c0.5,2.3,0.9,4.6,1,7c-2.2,1.2-12.9-3.6-14.8-4.6c-3.3-1.7-6.3-3.8-9-6.3
					c-26.7-24-24.6-36.7-25.3-44l1.8-1.7l1.5-0.2c1.2,2.3,1.6,5.1,2.4,7.5c1,2.7,2,5.2,3.3,7.8c2.4,4.9,5.5,9.5,9.2,13.6
					c3.6,4,7.1,7.9,11.1,11.6C111.8,121.1,120.7,124.5,126.4,126.2z"/>
				<path id="Shape_30_" class="st7" d="M133.8,97.3c1.9,4.9,2.5,8.4,1.5,13.8c-0.7,3.4-3.1,7.5-6.3,4.4
					C124.8,111.4,126.8,91.4,133.8,97.3z"/>
			</g>
			<g id="Grass-middle">
				<path id="Shape_31_" class="st8" d="M276.9,177.2c-1.5,1.4-4.3,0.7-6.1,0.7l-7.8-0.2c-5.4-0.2-10.8-0.3-16.2-0.6
					c-5-0.3-9.9-0.9-14.8-1.2c-2.5-0.2-4.9-0.3-7.3-0.4c-1.8-0.1-4.5,0.4-6-1c3.1-3.9,8.6-3.2,13.1-3.3c5.5-0.1,11.3,0.4,16.8-0.5
					c5.5-0.8,11.2-1.4,16.8-1C271.1,170.4,273.6,172.7,276.9,177.2z"/>
				<path id="Rectangle-path_1_" class="st9" d="M-1.1,174.1h482.2v187.3H-1.1V174.1"/>
				<path id="Shape_32_" class="st8" d="M257.4,196.4c1.1-10.3,13.1-12.3,21.5-13.4c12.3-1.6,24.9-2.4,37.3-1.8
					c23.3,1.3,46.8,0.5,70.1,2.4c12.4,8.1,1.5,18.3-9.1,20.8c-13.5,3.2-27.8,2.2-41.5,2.6c-14.6,0.5-29.1-0.1-43.7-0.3
					C279.6,206.8,263.7,208.5,257.4,196.4z"/>
				<path id="Shape_33_" class="st5" d="M335.5,265.2c0.1-2.1-0.3-4.2-1.1-6.1c-0.3-0.7-0.7-1.3-1-2c-3.7-8.9-10.6-12.2-18.6-12.8
					c-4.5-0.4-9,0.7-13.4,2.4c-8.6,3.4-13.6,9.8-15.9,18.5H335.5z"/>
				<path id="Shape_34_" class="st4" d="M273.8,273.7c0.1-2.1-0.3-4.2-1.1-6.1c-0.3-0.7-0.7-1.3-1-2c-3.7-8.9-10.6-12.2-18.6-12.8
					c-4.5-0.4-9,0.7-13.4,2.4c-8.6,3.4-13.6,9.8-15.9,18.5H273.8z"/>
				<path id="Shape_35_" class="st4" d="M170.3,266.5c-12.5,3.5-24.2,2.4-36.9,2.2c-6-0.1-12-1-17.8-2.8c-5-1.5-10.9-1.9-14.4-6.2
					c-4.7-11.1,26.4-9.4,31.1-9.5c7-0.1,13.9,0.8,20.8,1.7c7.2,1,14.3,1.2,21.5,1.9l1.3,3.6C175.3,261.4,173.6,264.3,170.3,266.5z"
					/>
				<path id="Shape_36_" class="st8" d="M45.5,189.1c0.4-4.7,5.8-5.7,9.6-6.2c5.6-0.9,11.3-1.2,16.9-1.1c10.6,0.4,21.3-0.1,31.8,0.7
					c5.7,3.6,0.8,8.3-4,9.5c-6.1,1.5-12.6,1.2-18.8,1.5c-6.6,0.3-13.2,0.2-19.8,0.2C55.7,193.7,48.4,194.6,45.5,189.1z"/>
				<path id="Shape_37_" class="st9" d="M178.5,170.4l0.8,0.3c0.1,1.3,0.1,2.6,0.2,3.8c-0.1,0.1-0.2,0.2-0.3,0.2c-0.2,0-0.4,0-0.6,0
					c-0.1-0.3-0.2-0.6-0.2-1C178.5,172.7,178.5,171.6,178.5,170.4z"/>
				<path id="Shape_38_" class="st9" d="M176.5,174.5c-0.2-0.3-0.4-0.4-0.4-0.5c-0.1-0.7-0.1-1.4-0.1-2c0.1-0.4,0.2-0.8,0.3-1.1
					l0.7,0.4C177,173.8,177,173.8,176.5,174.5z"/>
				<path id="Shape_39_" class="st9" d="M181.9,174.5l-0.8,0.2c-0.6-1.1-0.1-2.1-0.2-3.1l0.6-0.2
					C181.9,172.5,181.8,173.5,181.9,174.5z"/>
				<path id="Shape_40_" class="st9" d="M91.4,176c-0.2-0.3-0.4-0.4-0.4-0.5c-0.1-0.7-0.1-1.4-0.1-2c0.1-0.4,0.2-0.8,0.3-1.1
					l0.7,0.4C91.9,175.3,91.9,175.3,91.4,176z"/>
				<path id="Shape_41_" class="st9" d="M96.8,176.1l-0.8,0.2c-0.6-1.1-0.1-2.1-0.2-3.1l0.6-0.2C96.8,174,96.7,175,96.8,176.1z"/>
				<path id="Shape_42_" class="st9" d="M454,176l-0.7-0.3c0.1-1.7,0.4-3.4,0.2-5.1l0.8-0.2C454.3,172.3,454.2,174.1,454,176z"/>
				<path id="Shape_43_" class="st9" d="M451.9,172.8c0.1,1,0.2,1.9,0.4,3h-0.9c-0.1-1.1-0.1-2-0.2-3.1L451.9,172.8z"/>
			</g>
			<g id="Tree-1">
				<path id="Shape_44_" class="st6" d="M304.4,116c1.1,1.7,4.1,4.8,4,6.8c-4.4,1.3-10.5,0.5-14.9-0.5c-4.4-1-9.1-2.4-13.2-4.2
					c-9.7-4.5-16.7-11.8-23.1-20.1c-6.2-8-11-16.4-16.1-25c-2.3-3.9-4.3-8.1-6.3-12.2c-1.7-3.3-6-8.5-5.7-12.3
					c0.6-1,1.6-1.8,2.7-2.1c1.7,2.2,2.6,5,4,7.4c1.3,2.2,2.5,4.3,3.5,6.6c2.4,5.1,6,9.5,8.3,14.6c2.3,1.8,3.8,4.9,5.5,7.2
					c1.7,2.3,3.4,4.7,5.2,6.9c3.7,4.9,7.5,9.4,12.6,13C281.3,109.6,291.9,114,304.4,116z"/>
				<path id="Shape_45_" class="st7" d="M325.2,97.4c0.4-1,1.4-1.5,2.2-2c2.9-1.9,6-3.5,9.2-4.8c3.2-1.1,6.3-2.5,9.3-4.1
					c0.4-0.2,0.8-0.3,1.2-0.5c0.7,0.4,0.3,0.9-0.2,1.2c-1.2,1-2.5,1.8-3.8,2.6c-4.7,2.6-9.7,4.6-14.6,6.9
					C327.4,97.3,326.3,97.7,325.2,97.4z"/>
				<path id="Shape_46_" class="st6" d="M338.6,54.5c0.8,5.9-0.6,12.5-1.5,18.3c-0.9,6.6-2.4,13.1-4.4,19.5
					c-4,11.8-10.2,26.1-20.5,33.8c-0.5-1.9,0.3-4.1,0.5-6c0.2-2.5,0.2-4.9-0.1-7.3c-0.3-4-1-9,0.1-12.9c6.7-5,11-12.1,14.4-19.6
					c1.8-4.1,3.5-8.1,4.4-12.6c0.8-4.2,1.2-8.6,2.5-12.7C335.4,54.1,336.9,54.2,338.6,54.5z"/>
				<path id="Shape_47_" class="st6" d="M305.4,265.8c1.7-19.8,5.1-83.5,5.3-88c0.1-2.3,3.6-53.8,3.8-55.2c0-0.1,0-0.2,0.1-0.4
					c0.3-2.3,2.7-62.1,2.8-64.7c0.1-1.9,5.9-57.1,4.3-58.6c-2.3-0.5-4.7-0.6-7.2,0c-2.4,7.2-16.2,241.5-16.8,248.6
					c-0.5,6-1.4,12.2-1.5,18.2H305.4z"/>
				<path id="Shape_48_" class="st10" d="M297.3,265.8C299.4,242.1,312.1,69,316.6-1h-24.8c-1.7,18.8-15.2,224.3-17.7,266.8H297.3z"
					/>
				<path id="Shape_49_" class="st6" d="M291,265.8l12.8-161.3l-25.5,161.3H291"/>
				<path id="Shape_50_" class="st10" d="M269.6,3.5c1.3-1.1,2.6-2.8,4.2-2.7c0.9,4.8,1,43.9,1.1,48.7c0.1,5.2,1.3,10.6,2.4,15.7
					c1,4.8,2.8,9.5,5.3,13.7c1.2,2,3.2,3.8,4,6c0.9,2.2,0.8,5.6,0.5,7.9c-4-1.3-7.5-7.6-9.4-11.1c-2.4-4.4-4-9-5-13.9
					C270.4,57.2,268.6,14.3,269.6,3.5z"/>
			</g>
			<g id="Grass-foreground">
				<path id="Shape_52_" class="st8" d="M481.1,244.3c-48,0-99.4,10.4-124,13c-33.4,3.5-53.2,4.5-118.4,4.5c-36,0-68.2-2-87.8-4
					c-15.4-1.6-47.4-5.8-55-6.3c-21.3-1.5-60.8-7.2-97.1-7.2v19.5v97.4h482.3V257L481.1,244.3z"/>
				<path id="Shape_54_" class="st9" d="M29.7,270.9c-4.1-0.6-24-1-30.8-1.3v22.3h19c10.8,0,25,1.8,30.7-8.9
					C47.9,273.9,37.2,271.9,29.7,270.9z"/>
				<path id="Shape_55_" class="st9" d="M447.5,270.9c4.1-0.6,26.8-1,33.7-1.3v22.3h-21.8c-10.8,0-25,1.8-30.7-8.9
					C429.5,273.9,440.1,271.9,447.5,270.9z"/>
				<path id="Shape_56_" class="st8" d="M128.2,257.3c-0.1-1.3-0.2-2.3,0.2-3.4l0.8,0.1v3L128.2,257.3z"/>
				<path id="Shape_57_" class="st8" d="M126.4,256.5h-0.7c-0.3-0.8,0.2-1.6-0.1-2.5l0.8-0.3C126.7,254.7,126.3,255.5,126.4,256.5z"
					/>
				<path id="Shape_58_" class="st8" d="M199.3,257.5l0.8,0.3c0.1,1.3,0.1,2.6,0.2,3.8c-0.1,0.1-0.2,0.2-0.3,0.2c-0.2,0-0.4,0-0.6,0
					c-0.1-0.3-0.2-0.7-0.2-1C199.2,259.8,199.3,258.8,199.3,257.5z"/>
				<path id="Shape_59_" class="st8" d="M197.3,261.6c-0.2-0.3-0.4-0.4-0.4-0.5c-0.1-0.7-0.1-1.4-0.1-2c0.1-0.4,0.2-0.8,0.3-1.1
					l0.7,0.4C197.8,260.8,197.8,260.8,197.3,261.6z"/>
				<path id="Shape_60_" class="st8" d="M202.7,261.6l-0.8,0.2c-0.6-1.1-0.1-2.1-0.2-3.1l0.6-0.2
					C202.7,259.5,202.5,260.6,202.7,261.6z"/>
				<path id="Shape_61_" class="st8" d="M350.9,259.2l-0.7-0.3c0.1-1.7,0.4-3.4,0.2-5.1l0.8-0.2
					C351.2,255.4,351.1,257.3,350.9,259.2z"/>
				<path id="Shape_62_" class="st8" d="M348.8,256c0.1,1,0.2,1.9,0.4,3h-0.9c-0.1-1.1-0.1-2-0.2-3.1L348.8,256z"/>
			</g>
		</g>
	</g>
	<path id="Path" class="st9" d="M473.8,361.1c-0.5-2.1-1.4-3.9-2.8-5.5c-14.5-18.4-38.6-16.2-59.6-17.2
		c-11.7-0.6-127.1-0.4-139.8,0.2c-11.6,0.6-24.3-0.3-35.4,3.2c-8.2,2.5-21,10-22.8,19.3H473.8z"/>
</g>
<g>
	<path class="st11" d="M72.4,331.1l-7.2-25.9h-0.3l-0.2,25.9h-9.8l2.5-39.9h11l8.5,27.7h0.3l8.5-27.7h11l2.5,39.9h-9.8L89,305.2
		h-0.3l-7.2,25.9H72.4z"/>
	<path class="st11" d="M111.9,298.4h-9.3v-7.2h9.3V298.4z M102.6,301.5h9.3v29.6h-9.3V301.5z"/>
	<path class="st11" d="M133.9,331.6c-1.4,0.4-3,0.6-4.8,0.6c-1.7,0-3.6-0.2-5.6-0.5c-1.4-0.3-2.9-0.7-4.4-1.4
		c-1.5-0.7-3-1.5-4.4-2.5l3.8-7.3c1.7,0.9,3.4,1.7,5.1,2.3c1.6,0.6,3.3,1,4.8,1.3c0.5,0.1,0.9,0.1,1.2-0.1c0.3-0.2,0.5-0.5,0.6-0.8
		c0.1-0.3,0-0.7-0.2-1c-0.2-0.3-0.5-0.6-0.9-0.8c-0.6-0.3-1.2-0.5-1.9-0.8c-0.7-0.2-1.4-0.5-2.1-0.8c-0.8-0.3-1.6-0.6-2.4-1
		s-1.7-0.9-2.6-1.4c-1.8-1.1-3.1-2.6-3.8-4.6c-0.7-2-0.6-4.1,0.3-6.2c0.6-1.8,1.8-3.2,3.5-4.3c1.7-1.1,4.1-1.7,7.1-1.8
		c2.4-0.1,4.6,0.3,6.7,1s4.2,1.8,6.2,3.4l-4.8,6.7c-1.5-0.9-2.9-1.6-4.1-2c-1.2-0.4-2.4-0.7-3.5-0.8c-0.3,0-0.6,0.1-0.8,0.3
		c-0.2,0.2-0.4,0.5-0.5,0.8c-0.1,0.3-0.1,0.6,0,0.9c0.1,0.3,0.3,0.6,0.6,0.7c0.5,0.3,1.1,0.6,1.8,0.9c0.7,0.3,1.4,0.5,2.1,0.8
		c0.7,0.3,1.5,0.6,2.2,0.9c0.8,0.3,1.5,0.6,2.3,1c2,1,3.4,2.4,4.3,3.9s1.2,3.4,0.9,5.4c-0.3,2-1,3.7-2.2,4.8
		S135.8,331.1,133.9,331.6z"/>
	<path class="st11" d="M161.7,331.6c-1.4,0.4-3,0.6-4.8,0.6c-1.7,0-3.6-0.2-5.6-0.5c-1.4-0.3-2.9-0.7-4.4-1.4
		c-1.5-0.7-3-1.5-4.4-2.5l3.8-7.3c1.7,0.9,3.4,1.7,5.1,2.3c1.6,0.6,3.3,1,4.8,1.3c0.5,0.1,0.9,0.1,1.2-0.1c0.3-0.2,0.5-0.5,0.6-0.8
		c0.1-0.3,0-0.7-0.2-1c-0.2-0.3-0.5-0.6-0.9-0.8c-0.6-0.3-1.2-0.5-1.9-0.8c-0.7-0.2-1.4-0.5-2.1-0.8c-0.8-0.3-1.6-0.6-2.4-1
		s-1.7-0.9-2.6-1.4c-1.8-1.1-3.1-2.6-3.8-4.6c-0.7-2-0.6-4.1,0.3-6.2c0.6-1.8,1.8-3.2,3.5-4.3c1.7-1.1,4.1-1.7,7.1-1.8
		c2.4-0.1,4.6,0.3,6.7,1s4.2,1.8,6.2,3.4l-4.8,6.7c-1.5-0.9-2.9-1.6-4.1-2c-1.2-0.4-2.4-0.7-3.5-0.8c-0.3,0-0.6,0.1-0.8,0.3
		c-0.2,0.2-0.4,0.5-0.5,0.8c-0.1,0.3-0.1,0.6,0,0.9c0.1,0.3,0.3,0.6,0.6,0.7c0.5,0.3,1.1,0.6,1.8,0.9c0.7,0.3,1.4,0.5,2.1,0.8
		c0.7,0.3,1.5,0.6,2.2,0.9c0.8,0.3,1.5,0.6,2.3,1c2,1,3.4,2.4,4.3,3.9s1.2,3.4,0.9,5.4c-0.3,2-1,3.7-2.2,4.8
		S163.5,331.1,161.7,331.6z"/>
	<path class="st11" d="M181,298.4h-9.3v-7.2h9.3V298.4z M171.7,301.5h9.3v29.6h-9.3V301.5z"/>
	<path class="st11" d="M200.6,331.8c-2.4,0-4.5-0.4-6.5-1.1c-2-0.7-3.7-1.8-5.1-3.1c-1.4-1.4-2.5-3-3.3-4.9c-0.8-1.9-1.2-4-1.2-6.4
		c0-2.4,0.4-4.6,1.3-6.5c0.8-1.9,2-3.6,3.5-4.9c1.4-1.3,3.1-2.3,5.1-3.1c2-0.7,4-1.1,6.3-1.1c2.2,0,4.3,0.4,6.2,1.1
		c2,0.7,3.7,1.7,5.1,3.1c1.4,1.3,2.6,3,3.4,4.9c0.9,1.9,1.3,4.1,1.3,6.5c0,2.4-0.4,4.5-1.2,6.4c-0.8,1.9-1.9,3.5-3.3,4.9
		c-1.4,1.4-3.1,2.4-5.1,3.1C205.1,331.4,203,331.8,200.6,331.8z M200.5,323.3c1.8,0,3.4-0.6,4.8-1.7c1.4-1.2,2.1-2.9,2.1-5.3
		c0-2.3-0.7-4-2.1-5.2c-1.4-1.2-3-1.8-4.8-1.8c-1.8,0-3.3,0.6-4.7,1.8c-1.3,1.2-2,3-2,5.2c0,2.4,0.7,4.1,2,5.3
		C197.2,322.7,198.8,323.3,200.5,323.3z"/>
	<path class="st11" d="M220.2,331.1v-29.6h9.4v1.7c0.6-0.5,1.6-1,2.8-1.5s2.5-0.8,3.8-0.9h0.9c3.6,0,6.2,1.1,8,3.4
		c1.7,2.2,2.6,5.2,2.6,8.9v18.1h-9.4v-14c0-1.5-0.1-2.8-0.3-3.7c-0.2-1-0.5-1.7-0.8-2.2c-0.3-0.5-0.7-0.8-1.3-1
		c-0.5-0.2-1.1-0.2-1.7-0.2c-1,0.1-1.9,0.3-2.5,0.5c-0.6,0.3-1.3,0.7-2,1.3v19.4H220.2z"/>
	<path class="st11" d="M264.2,301.5h4.5v-1.8c0-3.3,0.7-5.8,2-7.4s3.3-2.4,5.9-2.4h5.7v8.3h-1.9c-1,0-1.7,0.2-2,0.5
		c-0.3,0.4-0.4,1-0.4,1.9v0.8h4.6v8.4H278v21.2h-9.3v-21.2h-4.5V301.5z"/>
	<path class="st11" d="M306.2,331.1v-2.6c-0.9,0.9-2,1.7-3.4,2.2s-2.8,0.8-4.3,0.8c-2,0-3.8-0.3-5.5-0.9c-1.7-0.6-3.2-1.5-4.5-2.8
		c-1.3-1.3-2.2-2.8-2.9-4.8c-0.7-1.9-1-4.2-0.9-6.9c0.1-2.6,0.5-4.9,1.3-6.9c0.8-2,1.9-3.6,3.2-4.8c1.3-1.3,2.8-2.2,4.5-2.8
		s3.5-0.9,5.3-0.8c1.5,0.1,2.9,0.5,4.2,1.1c1.3,0.6,2.3,1.3,3.1,2.2v-2.7h9.3v29.6H306.2z M299.6,323.3c1.6,0,2.9-0.4,4.1-1.2
		c1.1-0.8,1.9-2,2.2-3.6c0-0.1,0-0.3,0.1-0.7c0-0.4,0.1-0.6,0.1-0.7c0-2.5-0.6-4.4-1.8-5.8c-1.2-1.4-2.6-2-4.4-2
		c-1.5-0.1-2.8,0.5-4.1,1.6c-1.3,1.2-1.9,3-1.9,5.4c0,2.4,0.5,4.1,1.6,5.3C296.6,322.7,298,323.3,299.6,323.3z"/>
	<path class="st11" d="M329.2,298.4h-9.3v-7.2h9.3V298.4z M319.8,301.5h9.3v29.6h-9.3V301.5z"/>
	<path class="st11" d="M333.5,290.4h9.4v40.7h-9.4V290.4z"/>
	<path class="st11" d="M374,301.5v29.6h-9.4v-1.7c-0.7,0.6-1.6,1.1-2.7,1.6c-1.1,0.5-2.3,0.8-3.6,0.9h-0.7c-3.6,0-6.3-1.1-7.9-3.2
		c-1.7-2.1-2.5-5-2.5-8.5v-18.6h9.4v14.6c0,2.7,0.4,4.5,1.1,5.4c0.7,0.9,1.6,1.3,2.7,1.2c0.9,0,1.7-0.1,2.4-0.4
		c0.6-0.3,1.3-0.8,1.8-1.4v-19.4H374z"/>
	<path class="st11" d="M395.3,301.2v8.9h-0.9c-1.1,0-2.2,0.2-3.3,0.5c-1.1,0.3-2.2,0.8-3.1,1.5v19h-9.6v-29.6h9.6v2.2
		c1-0.8,1.9-1.3,2.9-1.7c1-0.4,2.1-0.6,3.4-0.8H395.3z"/>
	<path class="st11" d="M397.1,316.5c0-2.5,0.4-4.7,1.1-6.7s1.7-3.7,3-5.1c1.3-1.4,2.8-2.4,4.7-3.2c1.8-0.8,3.8-1.1,6-1.1
		c2.2,0,4.2,0.4,5.9,1.2c1.7,0.8,3.2,1.9,4.4,3.3c1.2,1.4,2.1,3.1,2.7,5.1c0.6,2,1,4.2,1,6.5l-0.2,3h-19.4c0.1,1.4,0.7,2.5,1.9,3.2
		c1.1,0.7,2.5,1.1,4,1.1c1.4,0,2.6-0.3,3.6-0.8c1-0.5,2-1.3,2.8-2.4l6.1,5.3c-1.6,2.2-3.5,3.8-5.7,4.8c-2.2,1-4.6,1.5-7.3,1.5
		c-2.2,0-4.2-0.4-6-1.1c-1.8-0.7-3.4-1.8-4.7-3.1c-1.3-1.4-2.4-3-3.1-5S397.1,318.9,397.1,316.5z M416.9,312.3
		c-0.2-1.2-0.8-2.1-1.7-2.7c-1-0.6-2-0.9-3.2-0.9c-1.4,0-2.5,0.3-3.4,1c-0.9,0.6-1.5,1.5-1.6,2.7H416.9z"/>
</g>
</svg>
